<?xml version="1.0" encoding="UTF-8"?>
<svg version="1.1" xmlns="http://www.w3.org/2000/svg" viewBox="0 0 200 200" width="200" height="200">
<g transform="translate(0 57.142857) scale(1.1904761905)">
<path d="M0 0 C55.44 0 110.88 0 168 0 C168 23.76 168 47.52 168 72 C112.56 72 57.12 72 0 72 C0 48.24 0 24.48 0 0 Z " fill="#FCFCFB" transform="translate(0,0)"/>
<path d="M0 0 C7.31551662 5.92142761 12.94943305 14.08976489 14.6953125 23.42578125 C15.09598892 29.23558933 14.9828862 34.73553617 13.6953125 40.42578125 C14.28828125 40.20535156 14.88125 39.98492187 15.4921875 39.7578125 C17.6953125 39.42578125 17.6953125 39.42578125 19.3984375 40.5 C19.90890625 41.03238281 20.419375 41.56476562 20.9453125 42.11328125 C21.72648437 42.89251953 21.72648437 42.89251953 22.5234375 43.6875 C23.6953125 45.42578125 23.6953125 45.42578125 23.6953125 49.42578125 C23.0353125 49.42578125 22.3753125 49.42578125 21.6953125 49.42578125 C21.6953125 50.08578125 21.6953125 50.74578125 21.6953125 51.42578125 C20.7053125 51.92078125 20.7053125 51.92078125 19.6953125 52.42578125 C21.6753125 53.08578125 23.6553125 53.74578125 25.6953125 54.42578125 C25.6953125 54.75578125 25.6953125 55.08578125 25.6953125 55.42578125 C24.6021875 55.69390625 23.5090625 55.96203125 22.3828125 56.23828125 C18.77326659 57.09114904 18.77326659 57.09114904 17.0078125 59.11328125 C16.5746875 59.54640625 16.1415625 59.97953125 15.6953125 60.42578125 C13.58325648 60.15325789 11.84784776 59.48387291 9.86433411 58.72846985 C6.86803577 58.31033416 5.54040044 59.35436819 2.9284668 60.83276367 C-4.27436 64.27665502 -11.24832732 64.05963982 -19.03515625 63.9140625 C-20.52157897 63.9047142 -22.0080173 63.89760765 -23.49446106 63.8926239 C-27.36963924 63.87371197 -31.24385091 63.82475339 -35.11865234 63.769104 C-39.08743217 63.71756538 -43.0563712 63.69503673 -47.02539062 63.66992188 C-54.78559253 63.61661439 -62.54500359 63.53150032 -70.3046875 63.42578125 C-70.3046875 60.45578125 -70.3046875 57.48578125 -70.3046875 54.42578125 C-67.9946875 53.76578125 -65.6846875 53.10578125 -63.3046875 52.42578125 C-63.9646875 52.09578125 -64.6246875 51.76578125 -65.3046875 51.42578125 C-65.3046875 50.76578125 -65.3046875 50.10578125 -65.3046875 49.42578125 C-65.9646875 49.42578125 -66.6246875 49.42578125 -67.3046875 49.42578125 C-66.99873574 45.8563441 -66.28044109 44.39563706 -63.9921875 41.55078125 C-61.3046875 39.42578125 -61.3046875 39.42578125 -58.9921875 39.61328125 C-58.4353125 39.88140625 -57.8784375 40.14953125 -57.3046875 40.42578125 C-57.46324219 39.90113281 -57.62179688 39.37648437 -57.78515625 38.8359375 C-60.04553891 28.34980138 -58.26939462 18.43835697 -53.0546875 9.21484375 C-48.39953728 2.31146757 -40.72203574 -3.56691436 -32.75 -6.1328125 C-20.85000216 -8.28089518 -10.12793415 -6.917894 0 0 Z " fill="#E3C132" transform="translate(70.3046875,8.57421875)"/>
<path d="M0 0 C6.29694547 5.18277421 11.26178484 11.04801302 12.3125 19.37109375 C12.76087319 28.37304775 10.30163919 34.79208053 4.40234375 41.5546875 C3.19578125 42.575625 3.19578125 42.575625 1.96484375 43.6171875 C1.34609375 44.1534375 0.72734375 44.6896875 0.08984375 45.2421875 C-6.19979976 49.31195683 -11.59779678 50.60513525 -19.03515625 49.6171875 C-27.24338896 47.44874393 -33.99419841 43.35737433 -38.41015625 35.9921875 C-41.7153034 29.12765112 -41.98572458 22.14984243 -41.03515625 14.6171875 C-37.93402818 6.77201397 -32.59918363 1.28035787 -25.03515625 -2.3828125 C-16.99955997 -5.09525006 -7.10669589 -4.68486098 0 0 Z " fill="#331A34" transform="translate(63.03515625,15.3828125)"/>
<path d="M0 0 C2.85053323 1.1494917 4.97614157 2.80940245 7.41015625 4.68359375 C17.96394375 12.49088701 29.73411739 17.35737111 43.16015625 15.87109375 C45.91271869 15.021299 45.91271869 15.021299 48.16015625 13.87109375 C48.91167969 13.73832031 49.66320313 13.60554688 50.4375 13.46875 C58.71120656 11.65257051 65.99265086 6.65119799 72.22265625 1.09375 C74.16015625 -0.12890625 74.16015625 -0.12890625 76.23828125 0.03515625 C79.28427501 1.36003971 81.05007966 3.35072448 83.16015625 5.87109375 C83.16015625 7.19109375 83.16015625 8.51109375 83.16015625 9.87109375 C82.50015625 9.87109375 81.84015625 9.87109375 81.16015625 9.87109375 C81.16015625 10.53109375 81.16015625 11.19109375 81.16015625 11.87109375 C80.50015625 12.20109375 79.84015625 12.53109375 79.16015625 12.87109375 C81.14015625 13.53109375 83.12015625 14.19109375 85.16015625 14.87109375 C85.16015625 15.20109375 85.16015625 15.53109375 85.16015625 15.87109375 C84.06703125 16.13921875 82.97390625 16.40734375 81.84765625 16.68359375 C78.23811034 17.53646154 78.23811034 17.53646154 76.47265625 19.55859375 C76.03953125 19.99171875 75.60640625 20.42484375 75.16015625 20.87109375 C73.04810023 20.59857039 71.31269151 19.92918541 69.32917786 19.17378235 C66.33287952 18.75564666 65.00524419 19.79968069 62.39331055 21.27807617 C55.19048375 24.72196752 48.21651643 24.50495232 40.4296875 24.359375 C38.94326478 24.3500267 37.45682645 24.34292015 35.97038269 24.3379364 C32.09520451 24.31902447 28.22099284 24.27006589 24.34619141 24.2144165 C20.37741158 24.16287788 16.40847255 24.14034923 12.43945312 24.11523438 C4.67925122 24.06192689 -3.08015984 23.97681282 -10.83984375 23.87109375 C-10.83984375 20.90109375 -10.83984375 17.93109375 -10.83984375 14.87109375 C-8.52984375 14.21109375 -6.21984375 13.55109375 -3.83984375 12.87109375 C-4.49984375 12.54109375 -5.15984375 12.21109375 -5.83984375 11.87109375 C-5.83984375 11.21109375 -5.83984375 10.55109375 -5.83984375 9.87109375 C-6.49984375 9.87109375 -7.15984375 9.87109375 -7.83984375 9.87109375 C-7.53389199 6.3016566 -6.81559734 4.84094956 -4.52734375 1.99609375 C-1.83984375 -0.12890625 -1.83984375 -0.12890625 0 0 Z " fill="#BD360B" transform="translate(10.83984375,48.12890625)"/>
<path d="M0 0 C11.22 0 22.44 0 34 0 C34 1.65 34 3.3 34 5 C32.13671875 6.765625 32.13671875 6.765625 29.6875 8.25 C28.88699219 8.75015625 28.08648438 9.2503125 27.26171875 9.765625 C25 11 25 11 22 12 C20.91546192 13.8507162 20.91546192 13.8507162 20 16 C19.17781584 17.27807473 18.34416056 18.54883282 17.5 19.8125 C12.21109383 28.34651674 11.80092381 38.13505998 13.51171875 47.9296875 C13.67285156 48.61289062 13.83398438 49.29609375 14 50 C13.278125 49.731875 12.55625 49.46375 11.8125 49.1875 C8.78330181 48.66858722 8.78330181 48.66858722 6.25 51.1875 C4.25955655 53.67555431 3.34342749 54.90915263 3 58 C3.66 58 4.32 58 5 58 C5 58.66 5 59.32 5 60 C6.32 60.66 7.64 61.32 9 62 C4.545 62.495 4.545 62.495 0 63 C0 42.21 0 21.42 0 0 Z " fill="#FDFDFB" transform="translate(0,0)"/>
<path d="M0 0 C6.29694547 5.18277421 11.26178484 11.04801302 12.3125 19.37109375 C12.76087319 28.37304775 10.30163919 34.79208053 4.40234375 41.5546875 C3.19578125 42.575625 3.19578125 42.575625 1.96484375 43.6171875 C1.34609375 44.1534375 0.72734375 44.6896875 0.08984375 45.2421875 C-6.19979976 49.31195683 -11.59779678 50.60513525 -19.03515625 49.6171875 C-27.24338896 47.44874393 -33.99419841 43.35737433 -38.41015625 35.9921875 C-41.7153034 29.12765112 -41.98572458 22.14984243 -41.03515625 14.6171875 C-37.93402818 6.77201397 -32.59918363 1.28035787 -25.03515625 -2.3828125 C-16.99955997 -5.09525006 -7.10669589 -4.68486098 0 0 Z M-16.03515625 -0.3828125 C-16.34453125 0.4834375 -16.34453125 0.4834375 -16.66015625 1.3671875 C-18.03515625 3.6171875 -18.03515625 3.6171875 -21.16015625 5.1171875 C-24.32175978 7.31018584 -24.32175978 7.31018584 -24.42578125 10.5390625 C-24.41148015 13.58519593 -24.29282042 16.58247619 -24.03515625 19.6171875 C-25.68515625 19.6171875 -27.33515625 19.6171875 -29.03515625 19.6171875 C-29.03515625 18.9571875 -29.03515625 18.2971875 -29.03515625 17.6171875 C-30.67484375 17.8646875 -30.67484375 17.8646875 -32.34765625 18.1171875 C-36.03515625 18.6171875 -36.03515625 18.6171875 -39.03515625 18.6171875 C-38.04515625 20.9271875 -37.05515625 23.2371875 -36.03515625 25.6171875 C-36.69515625 25.6171875 -37.35515625 25.6171875 -38.03515625 25.6171875 C-37.52993403 29.99578005 -34.85688403 32.43369974 -32.03515625 35.6171875 C-34.01515625 36.1121875 -34.01515625 36.1121875 -36.03515625 36.6171875 C-32.79152135 41.3251853 -32.79152135 41.3251853 -27.72265625 43.4921875 C-26.83578125 43.5334375 -25.94890625 43.5746875 -25.03515625 43.6171875 C-25.03515625 44.2771875 -25.03515625 44.9371875 -25.03515625 45.6171875 C-20.49814131 47.06903228 -16.85454149 47.85227946 -12.03515625 47.6171875 C-12.03515625 46.6271875 -12.03515625 45.6371875 -12.03515625 44.6171875 C-14.01515625 45.1121875 -14.01515625 45.1121875 -16.03515625 45.6171875 C-16.03515625 44.6271875 -16.03515625 43.6371875 -16.03515625 42.6171875 C-13.03515625 42.6171875 -10.03515625 42.6171875 -7.03515625 42.6171875 C-8.35515625 43.2771875 -9.67515625 43.9371875 -11.03515625 44.6171875 C-11.03515625 45.2771875 -11.03515625 45.9371875 -11.03515625 46.6171875 C-6.25939286 46.1489754 -2.9903928 45.37386752 0.96484375 42.6171875 C0.63484375 41.6271875 0.30484375 40.6371875 -0.03515625 39.6171875 C0.68671875 39.6171875 1.40859375 39.6171875 2.15234375 39.6171875 C5.85686785 38.30002338 7.0799345 36.70059158 9.01953125 33.33984375 C11.48507444 26.23867183 11.19873986 17.40966808 7.96484375 10.6171875 C6.97484375 10.9471875 5.98484375 11.2771875 4.96484375 11.6171875 C4.96484375 12.6071875 4.96484375 13.5971875 4.96484375 14.6171875 C4.30484375 14.6171875 3.64484375 14.6171875 2.96484375 14.6171875 C2.96484375 13.9571875 2.96484375 13.2971875 2.96484375 12.6171875 C1.97484375 12.2871875 0.98484375 11.9571875 -0.03515625 11.6171875 C0.31271083 13.59255495 0.31271083 13.59255495 0.96484375 15.6171875 C1.62484375 15.9471875 2.28484375 16.2771875 2.96484375 16.6171875 C2.96484375 17.2771875 2.96484375 17.9371875 2.96484375 18.6171875 C1.97484375 18.2871875 0.98484375 17.9571875 -0.03515625 17.6171875 C0.17109375 18.3184375 0.37734375 19.0196875 0.58984375 19.7421875 C1.04483487 23.23045278 0.19506484 25.3607199 -1.03515625 28.6171875 C-1.03515625 29.2771875 -1.03515625 29.9371875 -1.03515625 30.6171875 C-1.69515625 30.6171875 -2.35515625 30.6171875 -3.03515625 30.6171875 C-3.53015625 26.6571875 -3.53015625 26.6571875 -4.03515625 22.6171875 C-5.68515625 22.2871875 -7.33515625 21.9571875 -9.03515625 21.6171875 C-8.70515625 21.1221875 -8.37515625 20.6271875 -8.03515625 20.1171875 C-6.63380664 16.61381347 -6.42161099 13.30576316 -7.03515625 9.6171875 C-8.73856198 6.60886319 -8.73856198 6.60886319 -11.03515625 4.6171875 C-11.69515625 4.6171875 -12.35515625 4.6171875 -13.03515625 4.6171875 C-13.36515625 2.9671875 -13.69515625 1.3171875 -14.03515625 -0.3828125 C-14.69515625 -0.3828125 -15.35515625 -0.3828125 -16.03515625 -0.3828125 Z " fill="#2F2C1E" transform="translate(63.03515625,15.3828125)"/>
<path d="M0 0 C0.99 0.33 1.98 0.66 3 1 C3 2.32 3 3.64 3 5 C2.34 5 1.68 5 1 5 C1 5.66 1 6.32 1 7 C1.70125 6.57847656 2.4025 6.15695313 3.125 5.72265625 C4.548125 5.36494141 4.548125 5.36494141 6 5 C8.27622507 6.4014524 10.02852361 7.68869036 12 9.4375 C13.95965449 11.16090172 15.80095013 12.54663858 18 14 C20.69434862 13.86727642 20.69434862 13.86727642 23 13 C25.3125 13.4375 25.3125 13.4375 27 14 C27 14.66 27 15.32 27 16 C28.65 16.33 30.3 16.66 32 17 C31.505 18.485 31.505 18.485 31 20 C31.66 20 32.32 20 33 20 C33 19.34 33 18.68 33 18 C36.01031744 17.06576355 36.86650268 16.95550089 40 18 C42.14255793 17.61067144 42.14255793 17.61067144 44 17 C44.495 18.485 44.495 18.485 45 20 C45.99 20 46.98 20 48 20 C47.505 18.515 47.505 18.515 47 17 C48.98 16.67 50.96 16.34 53 16 C52.67 17.32 52.34 18.64 52 20 C51.34 20 50.68 20 50 20 C49.01 20.66 48.02 21.32 47 22 C44.47529602 22.24050903 44.47529602 22.24050903 41.42700195 22.22705078 C40.28604568 22.22689972 39.14508942 22.22674866 37.96955872 22.22659302 C36.73823715 22.21627045 35.50691559 22.20594788 34.23828125 22.1953125 C32.34688667 22.19106766 32.34688667 22.19106766 30.4172821 22.18673706 C27.06839578 22.17743125 23.71978209 22.15946703 20.37097168 22.1373291 C16.95241653 22.11685386 13.5338332 22.10773176 10.11523438 22.09765625 C3.41008081 22.0755818 -3.29494385 22.04209362 -10 22 C-10.02689216 20.52093108 -10.04634621 19.04172517 -10.0625 17.5625 C-10.07410156 16.73878906 -10.08570313 15.91507813 -10.09765625 15.06640625 C-10 13 -10 13 -9 12 C-6.32941149 11.85884839 -3.67567762 11.95752893 -1 12 C-1.66 10.02 -2.32 8.04 -3 6 C-3.66 6 -4.32 6 -5 6 C-5 5.34 -5 4.68 -5 4 C-2.6875 1.8125 -2.6875 1.8125 0 0 Z " fill="#BC2618" transform="translate(10,50)"/>
<path d="M0 0 C1.67797852 1.18237305 1.67797852 1.18237305 3 3 C3.50048101 6.92441283 3.13534444 10.86724913 2.9375 14.8125 C2.90978516 15.89337891 2.88207031 16.97425781 2.85351562 18.08789062 C2.58485359 24.2519816 2.18680284 28.33832349 -2 33 C-4.76250036 34.38125018 -6.94731099 34.19079306 -10 34 C-10.66 33.34 -11.32 32.68 -12 32 C-11.625 29.875 -11.625 29.875 -11 28 C-7.535 27.505 -7.535 27.505 -4 27 C-3.34 25.35 -2.68 23.7 -2 22 C-2.7425 22.2475 -3.485 22.495 -4.25 22.75 C-7 23 -7 23 -9.25 21.1875 C-12.17964045 17.52544943 -12.32995777 14.97377163 -12.29296875 10.39453125 C-11.81795493 6.51208497 -10.24925755 4.17542243 -8 1 C-5.20129973 -0.39935013 -3.09501208 -0.25265405 0 0 Z " fill="#252525" transform="translate(165,27)"/>
<path d="M0 0 C1.093125 0.185625 2.18625 0.37125 3.3125 0.5625 C6.93624133 1.2578068 6.93624133 1.2578068 10 0 C9.34 1.65 8.68 3.3 8 5 C8.33 5 8.66 5 9 5 C9.33 5 9.66 5 10 5 C10 7.97 10 10.94 10 14 C9.34 14 8.68 14 8 14 C8.33 14.99 8.66 15.98 9 17 C9.99 16.01 10.98 15.02 12 14 C12.66 14.66 13.32 15.32 14 16 C19.68667608 17.5889242 25.21451407 18.56364485 31 17 C31 20.11257569 30.82638376 22.10765685 30 25 C27.69 25 25.38 25 23 25 C23 25.99 23 26.98 23 28 C24.32 27.67 25.64 27.34 27 27 C27 27.99 27 28.98 27 30 C22.28665497 30.22991927 18.45430227 29.57210668 14 28 C13.67 27.34 13.34 26.68 13 26 C12.2575 25.9175 11.515 25.835 10.75 25.75 C6.70373573 24.64647338 5.47438034 22.32273932 3 19 C4.32 18.67 5.64 18.34 7 18 C6.566875 17.52949219 6.13375 17.05898438 5.6875 16.57421875 C5.130625 15.95160156 4.57375 15.32898437 4 14.6875 C3.443125 14.07261719 2.88625 13.45773438 2.3125 12.82421875 C1 11 1 11 1 8 C1.66 7.67 2.32 7.34 3 7 C2.01 4.69 1.02 2.38 0 0 Z " fill="#28134A" transform="translate(24,33)"/>
<path d="M0 0 C5.26324259 0.06511228 9.07562418 3.20254156 13 6.4375 C15.5625 9.3125 15.5625 9.3125 17 11.4375 C16.34 13.0875 15.68 14.7375 15 16.4375 C14.34 16.4375 13.68 16.4375 13 16.4375 C13 15.7775 13 15.1175 13 14.4375 C12.34 14.4375 11.68 14.4375 11 14.4375 C11 15.0975 11 15.7575 11 16.4375 C11.99 17.0975 12.98 17.7575 14 18.4375 C13.67 19.4275 13.34 20.4175 13 21.4375 C12.34 21.1075 11.68 20.7775 11 20.4375 C11.33 22.0875 11.66 23.7375 12 25.4375 C11.34 25.4375 10.68 25.4375 10 25.4375 C9.67 27.7475 9.34 30.0575 9 32.4375 C8.34 32.4375 7.68 32.4375 7 32.4375 C6.67 29.7975 6.34 27.1575 6 24.4375 C4.35 24.1075 2.7 23.7775 1 23.4375 C1.16371094 22.88578125 1.32742187 22.3340625 1.49609375 21.765625 C2.05760414 19.17135993 2.09739008 16.83914589 2.0625 14.1875 C2.05347656 13.29546875 2.04445313 12.4034375 2.03515625 11.484375 C2.02355469 10.80890625 2.01195312 10.1334375 2 9.4375 C1.01 9.1075 0.02 8.7775 -1 8.4375 C-1 7.7775 -1 7.1175 -1 6.4375 C-1.66 6.4375 -2.32 6.4375 -3 6.4375 C-3.38218767 4.78135343 -3.71395102 3.11292976 -4 1.4375 C-3 0.4375 -3 0.4375 0 0 Z " fill="#291A5D" transform="translate(53,13.5625)"/>
<path d="M0 0 C1.0828125 0.37125 1.0828125 0.37125 2.1875 0.75 C1.8575 1.41 1.5275 2.07 1.1875 2.75 C-0.4625 2.75 -2.1125 2.75 -3.8125 2.75 C-3.23905063 5.61724686 -2.9510485 6.6114515 -0.8125 8.75 C-2.1325 8.75 -3.4525 8.75 -4.8125 8.75 C-4.8125 10.07 -4.8125 11.39 -4.8125 12.75 C-5.4725 12.75 -6.1325 12.75 -6.8125 12.75 C-6.4825 13.74 -6.1525 14.73 -5.8125 15.75 C-3.8325 15.42 -1.8525 15.09 0.1875 14.75 C0.26226562 15.58402344 0.33703125 16.41804688 0.4140625 17.27734375 C1.32025965 25.03332528 2.68959026 31.00109873 8.1875 36.75 C10.73312219 38.6958443 13.32933558 40.30640934 16.1875 41.75 C12.09056246 43.11564585 10.44426087 41.84118785 6.66796875 40.0546875 C-0.27432587 36.40314986 -7.20900495 32.56048514 -9.8125 24.75 C-10.61527094 9.88940302 -10.61527094 9.88940302 -7.8125 3.75 C-5.12332648 0.84278538 -4.00856404 -0.3563168 0 0 Z " fill="#FBF016" transform="translate(21.8125,20.25)"/>
<path d="M0 0 C0.66 0 1.32 0 2 0 C5.23389611 6.79248058 5.52023069 15.62148433 3.0546875 22.72265625 C1.11509075 26.08340408 -0.1079759 27.68283588 -3.8125 29 C-4.534375 29 -5.25625 29 -6 29 C-5.67 29.99 -5.34 30.98 -5 32 C-8.95523655 34.75668002 -12.22423661 35.5317879 -17 36 C-17 35.34 -17 34.68 -17 34 C-15.02 33.34 -13.04 32.68 -11 32 C-11 31.34 -11 30.68 -11 30 C-10.34 30 -9.68 30 -9 30 C-9.185625 28.88625 -9.37125 27.7725 -9.5625 26.625 C-10 23 -10 23 -9 21 C-7.68 21.33 -6.36 21.66 -5 22 C-5.33 21.67 -5.66 21.34 -6 21 C-6.04315144 18.32461085 -6.04680441 15.67305179 -6 13 C-6 12.01 -6 11.02 -6 10 C-5.67 9.01 -5.34 8.02 -5 7 C-4.34 7.33 -3.68 7.66 -3 8 C-3 7.34 -3 6.68 -3 6 C-3.99 5.34 -4.98 4.68 -6 4 C-5.67 3.01 -5.34 2.02 -5 1 C-4.34 1.33 -3.68 1.66 -3 2 C-3 2.66 -3 3.32 -3 4 C-2.34 4 -1.68 4 -1 4 C-0.67 2.68 -0.34 1.36 0 0 Z " fill="#3B364B" transform="translate(69,26)"/>
<path d="M0 0 C2.9375 0.5625 2.9375 0.5625 4.75 1.8125 C7.51903816 5.89318781 7.47258188 10.76521422 6.9375 15.5625 C5.58809348 18.87467963 4.4582227 21.0417773 1.9375 23.5625 C-0.95869822 23.93380746 -2.44138771 24.02833421 -4.8125 22.25 C-8.13672066 17.76230211 -7.59916936 11.8687238 -7.0625 6.5625 C-5.76017325 2.64807789 -4.20825247 0.77294433 0 0 Z " fill="#191718" transform="translate(131.0625,26.4375)"/>
<path d="M0 0 C3.0625 0.375 3.0625 0.375 4.73046875 2.03125 C7.24746451 6.45998154 6.53712271 11.43760539 6.0625 16.375 C4.9375 20.0625 4.9375 20.0625 3.0625 22.375 C0.1875 23.625 0.1875 23.625 -2.9375 23.375 C-6.06240923 20.79355324 -7.59969242 19.16601754 -8.3515625 15.1796875 C-8.53701673 10.20614218 -7.64362865 6.64235672 -4.9375 2.375 C-2.9375 0.375 -2.9375 0.375 0 0 Z " fill="#262626" transform="translate(115.9375,26.625)"/>
<path d="M0 0 C0.3125 2.25 0.3125 2.25 0 5 C-4.10810811 9 -4.10810811 9 -7 9 C-6.67 13.29 -6.34 17.58 -6 22 C-8.31 22 -10.62 22 -13 22 C-12.67 21.01 -12.34 20.02 -12 19 C-12.99 19.66 -13.98 20.32 -15 21 C-17.63434254 20.67873872 -19.62710097 20.18644952 -22 19 C-21.44271087 15.65626525 -20.64826111 12.96687001 -19 10 C-18.34 10 -17.68 10 -17 10 C-16.89751953 8.84951172 -16.89751953 8.84951172 -16.79296875 7.67578125 C-16 5 -16 5 -13.92578125 3.41796875 C-5.21057786 -0.68560235 -5.21057786 -0.68560235 0 0 Z " fill="#2A1764" transform="translate(46,14)"/>
<path d="M0 0 C0 2.97 0 5.94 0 9 C-0.99 9 -1.98 9 -3 9 C-3 8.01 -3 7.02 -3 6 C-5.41188306 6.36988963 -6.66124143 6.59955391 -8.265625 8.49609375 C-11.10421348 14.09442102 -11.45891141 18.77920087 -11 25 C-7.28106121 25.28957615 -7.28106121 25.28957615 -4.1875 23.5 C-3.795625 23.005 -3.40375 22.51 -3 22 C-2.01 22.33 -1.02 22.66 0 23 C-0.2846076 26.41529114 -0.79660671 27.78498424 -3.1875 30.3125 C-6.49308432 32.29585059 -8.20947253 32.5768194 -12 32 C-14.55949546 30.14657225 -14.97918798 29.06243607 -16 26 C-16.84837751 17.35866905 -16.24718797 10.15274571 -11 3 C-7.72339472 0.18237444 -4.22624606 -2.11312303 0 0 Z " fill="#20201F" transform="translate(107,17)"/>
<path d="M0 0 C0.99 0 1.98 0 3 0 C3.33 1.65 3.66 3.3 4 5 C2.02 6.65 0.04 8.3 -2 10 C-1.67 10.66 -1.34 11.32 -1 12 C-0.814375 11.401875 -0.62875 10.80375 -0.4375 10.1875 C1.72273753 6.90018201 4.35107655 6.35145313 8 5 C8 5.66 8 6.32 8 7 C7.01 7.495 7.01 7.495 6 8 C7.98 8.66 9.96 9.32 12 10 C12 10.33 12 10.66 12 11 C10.906875 11.268125 9.81375 11.53625 8.6875 11.8125 C5.07795409 12.66536779 5.07795409 12.66536779 3.3125 14.6875 C2.879375 15.120625 2.44625 15.55375 2 16 C0.0625 15.75 0.0625 15.75 -2 15 C-4.47498581 14.11644557 -5.57258612 13.83951819 -8.0703125 14.77734375 C-8.74835938 15.16019531 -9.42640625 15.54304688 -10.125 15.9375 C-13.83050847 18 -13.83050847 18 -16 18 C-16.33 17.34 -16.66 16.68 -17 16 C-17.66 15.67 -18.32 15.34 -19 15 C-19 13.68 -19 12.36 -19 11 C-18.38511719 10.74605469 -17.77023438 10.49210937 -17.13671875 10.23046875 C-16.32847656 9.88628906 -15.52023438 9.54210938 -14.6875 9.1875 C-13.88699219 8.85105469 -13.08648437 8.51460937 -12.26171875 8.16796875 C-10.01408886 7.00727559 -8.72964465 5.80826486 -7 4 C-4.3125 2.8125 -4.3125 2.8125 -2 2 C-1.67 2.99 -1.34 3.98 -1 5 C-0.34 4.34 0.32 3.68 1 3 C0.67 2.01 0.34 1.02 0 0 Z " fill="#BC3726" transform="translate(84,53)"/>
<path d="M0 0 C0.99 0 1.98 0 3 0 C3.33 1.65 3.66 3.3 4 5 C4.99 5 5.98 5 7 5 C7 3.35 7 1.7 7 0 C13.43226286 -0.68428328 17.77886904 1.22504788 23 5 C23.99 6.485 23.99 6.485 25 8 C23.7625 8.680625 23.7625 8.680625 22.5 9.375 C21.675 9.91125 20.85 10.4475 20 11 C20 11.66 20 12.32 20 13 C20.66 13.33 21.32 13.66 22 14 C22 14.99 22 15.98 22 17 C22.99 17.33 23.98 17.66 25 18 C25.3721042 19.32303717 25.70630173 20.65737935 26 22 C26.66 22.33 27.32 22.66 28 23 C27.34 24.32 26.68 25.64 26 27 C25.72027344 26.41992188 25.44054687 25.83984375 25.15234375 25.2421875 C20.6892508 16.54561409 15.62112325 12.12739404 6.4453125 8.74609375 C3.27447687 7.77863432 0.29938685 7.2869032 -3 7 C-2.01 6.67 -1.02 6.34 0 6 C0 4.02 0 2.04 0 0 Z " fill="#E7D63D" transform="translate(48,4)"/>
<path d="M0 0 C2.85053323 1.1494917 4.97614157 2.80940245 7.41015625 4.68359375 C17.95801433 12.48650065 29.73976453 17.3677005 43.16015625 15.87109375 C46.13995826 15.02049362 46.13995826 15.02049362 48.16015625 13.87109375 C48.65515625 14.86109375 48.65515625 14.86109375 49.16015625 15.87109375 C44.96439783 17.96897296 40.97076438 18.2868062 36.3671875 18.625 C34.12081744 18.74687116 34.12081744 18.74687116 32.16015625 19.87109375 C32.16015625 20.53109375 32.16015625 21.19109375 32.16015625 21.87109375 C31.50015625 21.87109375 30.84015625 21.87109375 30.16015625 21.87109375 C30.16015625 21.21109375 30.16015625 20.55109375 30.16015625 19.87109375 C26.33987361 16.97694024 22.89631477 16.22853968 18.16015625 15.87109375 C17.50015625 16.20109375 16.84015625 16.53109375 16.16015625 16.87109375 C15.47953125 16.12859375 14.79890625 15.38609375 14.09765625 14.62109375 C11.0628725 11.60355309 8.03653249 9.70356252 4.16015625 7.87109375 C1.80346572 7.9738469 1.80346572 7.9738469 0.16015625 8.87109375 C0.16015625 8.21109375 0.16015625 7.55109375 0.16015625 6.87109375 C0.82015625 6.87109375 1.48015625 6.87109375 2.16015625 6.87109375 C1.83015625 5.55109375 1.50015625 4.23109375 1.16015625 2.87109375 C0.56203125 3.18046875 -0.03609375 3.48984375 -0.65234375 3.80859375 C-2.83984375 4.87109375 -2.83984375 4.87109375 -5.83984375 5.87109375 C-5.83984375 6.53109375 -5.83984375 7.19109375 -5.83984375 7.87109375 C-5.17984375 7.87109375 -4.51984375 7.87109375 -3.83984375 7.87109375 C-3.17984375 9.52109375 -2.51984375 11.17109375 -1.83984375 12.87109375 C-3.15984375 12.54109375 -4.47984375 12.21109375 -5.83984375 11.87109375 C-5.83984375 11.21109375 -5.83984375 10.55109375 -5.83984375 9.87109375 C-6.49984375 9.87109375 -7.15984375 9.87109375 -7.83984375 9.87109375 C-7.53389199 6.3016566 -6.81559734 4.84094956 -4.52734375 1.99609375 C-1.83984375 -0.12890625 -1.83984375 -0.12890625 0 0 Z " fill="#B53406" transform="translate(10.83984375,48.12890625)"/>
<path d="M0 0 C1.06927734 0.12568359 1.06927734 0.12568359 2.16015625 0.25390625 C7.69019573 0.84189161 12.54028471 1.09194306 18 0 C19.49821059 3.37097383 20 5.20442119 20 9 C14.65802611 10.43639742 10.48528336 11.34084704 5 10 C3 9.66666667 1 9.33333333 -1 9 C-0.67 6.03 -0.34 3.06 0 0 Z " fill="#D9D412" transform="translate(39,39)"/>
<path d="M0 0 C1.66611905 -0.042721 3.33382885 -0.04063832 5 0 C6 1 6 1 6.25 4.125 C5.96525447 8.53855564 4.92474062 11.07032123 3 15 C2.34 15 1.68 15 1 15 C1 15.99 1 16.98 1 18 C1.66 18.33 2.32 18.66 3 19 C-0.21245843 18.7395304 -1.6147565 18.42509628 -3.8125 16 C-5.39678806 11.99758806 -5.61422989 8.25972417 -5 4 C-4.34 3.01 -3.68 2.02 -3 1 C-2.01 1.33 -1.02 1.66 0 2 C0 1.34 0 0.68 0 0 Z " fill="#303030" transform="translate(158,31)"/>
<path d="M0 0 C1.32 0 2.64 0 4 0 C5.60725635 3.21451269 5.05748185 6.43612536 5 10 C4.01 10.33 3.02 10.66 2 11 C2 9.35 2 7.7 2 6 C-0.10029827 7.019062 -0.10029827 7.019062 -2 9 C-2.70272776 12.41627532 -2.70272776 12.41627532 -2.75 16.1875 C-2.80671875 17.45980469 -2.8634375 18.73210938 -2.921875 20.04296875 C-2.94765625 21.01878906 -2.9734375 21.99460937 -3 23 C-4.32 23.33 -5.64 23.66 -7 24 C-7 16.41 -7 8.82 -7 1 C-5.02 1 -3.04 1 -1 1 C-0.67 0.67 -0.34 0.34 0 0 Z " fill="#262626" transform="translate(147,26)"/>
<path d="M0 0 C0.99 0.33 1.98 0.66 3 1 C3 2.32 3 3.64 3 5 C3.66 5 4.32 5 5 5 C7.53906064 7.61373889 8.92256852 9.12889581 9.25 12.8125 C9.1675 13.534375 9.085 14.25625 9 15 C8.34 15 7.68 15 7 15 C6.6596875 13.7934375 6.6596875 13.7934375 6.3125 12.5625 C5.24943622 9.78485233 5.24943622 9.78485233 2.5625 9.0625 C-0.24528606 8.74837398 -0.24528606 8.74837398 -3 11 C-3.72382467 13.05925139 -3.72382467 13.05925139 -4 15 C-1.13275314 14.42655063 -0.1385485 14.1385485 2 12 C2.103125 12.639375 2.20625 13.27875 2.3125 13.9375 C2.539375 14.618125 2.76625 15.29875 3 16 C3.99 16.33 4.98 16.66 6 17 C5.67 18.32 5.34 19.64 5 21 C2.03 20.67 -0.94 20.34 -4 20 C-4 19.34 -4 18.68 -4 18 C-4.66 18 -5.32 18 -6 18 C-6.8125 14.8125 -6.8125 14.8125 -7 11 C-4.6875 8.4375 -4.6875 8.4375 -2 6 C-0.66436389 2.83298577 -0.66436389 2.83298577 0 0 Z " fill="#9A2C40" transform="translate(47,15)"/>
<path d="M0 0 C1.093125 0.185625 2.18625 0.37125 3.3125 0.5625 C6.93624133 1.2578068 6.93624133 1.2578068 10 0 C9.34 1.65 8.68 3.3 8 5 C8.33 5 8.66 5 9 5 C9.33 5 9.66 5 10 5 C10 7.97 10 10.94 10 14 C9.34 14 8.68 14 8 14 C8.33 14.99 8.66 15.98 9 17 C9.99 16.01 10.98 15.02 12 14 C13.08427519 18.45757577 12.44360116 20.66919651 11 25 C10.67 24.01 10.34 23.02 10 22 C8.35 22 6.7 22 5 22 C4.34 20.68 3.68 19.36 3 18 C4.32 18 5.64 18 7 18 C6.566875 17.52949219 6.13375 17.05898438 5.6875 16.57421875 C5.130625 15.95160156 4.57375 15.32898437 4 14.6875 C3.443125 14.07261719 2.88625 13.45773438 2.3125 12.82421875 C1 11 1 11 1 8 C1.66 7.67 2.32 7.34 3 7 C2.01 4.69 1.02 2.38 0 0 Z " fill="#855A4D" transform="translate(24,33)"/>
<path d="M0 0 C0.33 0 0.66 0 1 0 C1 1.65 1 3.3 1 5 C2.11375 5.103125 3.2275 5.20625 4.375 5.3125 C6.169375 5.6528125 6.169375 5.6528125 8 6 C10 9 10 9 10 12 C9.34 12 8.68 12 8 12 C8.66 14.31 9.32 16.62 10 19 C10.99 17.68 11.98 16.36 13 15 C14.32 15.99 15.64 16.98 17 18 C16.67 18.99 16.34 19.98 16 21 C15.34 20.67 14.68 20.34 14 20 C14.33 21.65 14.66 23.3 15 25 C14.34 25 13.68 25 13 25 C12.67 27.31 12.34 29.62 12 32 C11.34 32 10.68 32 10 32 C9.67 29.36 9.34 26.72 9 24 C7.35 23.67 5.7 23.34 4 23 C4.16371094 22.44828125 4.32742187 21.8965625 4.49609375 21.328125 C5.05760414 18.73385993 5.09739008 16.40164589 5.0625 13.75 C5.05347656 12.85796875 5.04445313 11.9659375 5.03515625 11.046875 C5.02355469 10.37140625 5.01195312 9.6959375 5 9 C4.01 8.67 3.02 8.34 2 8 C2 7.34 2 6.68 2 6 C1.34 6 0.68 6 0 6 C-0.38218767 4.34385343 -0.71395102 2.67542976 -1 1 C-0.67 0.67 -0.34 0.34 0 0 Z " fill="#251C52" transform="translate(50,14)"/>
<path d="M0 0 C1.0828125 0.37125 1.0828125 0.37125 2.1875 0.75 C1.8575 1.41 1.5275 2.07 1.1875 2.75 C-0.4625 2.75 -2.1125 2.75 -3.8125 2.75 C-3.23905063 5.61724686 -2.9510485 6.6114515 -0.8125 8.75 C-2.1325 8.75 -3.4525 8.75 -4.8125 8.75 C-4.8125 10.07 -4.8125 11.39 -4.8125 12.75 C-5.4725 12.75 -6.1325 12.75 -6.8125 12.75 C-6.4825 13.74 -6.1525 14.73 -5.8125 15.75 C-3.8325 15.42 -1.8525 15.09 0.1875 14.75 C0.5175 19.04 0.8475 23.33 1.1875 27.75 C-1.76433101 24.79816899 -1.89913988 21.79488053 -2.8125 17.75 C-3.8025 18.08 -4.7925 18.41 -5.8125 18.75 C-5.8125 22.71 -5.8125 26.67 -5.8125 30.75 C-10.03492057 26.52757943 -9.96905714 23.76774881 -10 18 C-9.87609186 5.98091012 -9.87609186 5.98091012 -5.5 1.25 C-2.8125 -0.25 -2.8125 -0.25 0 0 Z " fill="#E4D548" transform="translate(21.8125,20.25)"/>
<path d="M0 0 C7.95652174 0.65217391 7.95652174 0.65217391 11 4 C13.10591762 3.72826869 14.82817273 3.06671818 16.80078125 2.30078125 C19.9032186 1.87646921 21.52542122 2.96766145 24.25 4.4375 C25.58804687 5.14712891 25.58804687 5.14712891 26.953125 5.87109375 C27.62859375 6.24363281 28.3040625 6.61617188 29 7 C29 7.33 29 7.66 29 8 C19.43 8 9.86 8 0 8 C0 5.36 0 2.72 0 0 Z " fill="#FBFCFB" transform="translate(0,64)"/>
<path d="M0 0 C0.33 0 0.66 0 1 0 C1.06058594 0.77085938 1.12117188 1.54171875 1.18359375 2.3359375 C1.30927734 3.84027344 1.30927734 3.84027344 1.4375 5.375 C1.51871094 6.37273438 1.59992188 7.37046875 1.68359375 8.3984375 C1.84965626 10.97927613 1.84965626 10.97927613 3 13 C2.34 13 1.68 13 1 13 C1 13.66 1 14.32 1 15 C4.7763932 15.2981424 4.7763932 15.2981424 7 14 C7.23828125 16.28125 7.23828125 16.28125 7 19 C2.09251166 24.71934444 -5.89348653 28.76319576 -13 31 C-13.99 30.67 -14.98 30.34 -16 30 C-10.25 26 -10.25 26 -8 26 C-7.72285156 25.4328125 -7.44570312 24.865625 -7.16015625 24.28125 C-6.39683884 22.78031611 -5.5925844 21.29939748 -4.74609375 19.84375 C-1.0684856 13.25698913 -0.14173993 7.49933091 0 0 Z " fill="#F4EB2D" transform="translate(75,32)"/>
<path d="M0 0 C2.69082872 0.17635452 5.32851446 0.61835921 8 1 C8 1.66 8 2.32 8 3 C9.65 3.33 11.3 3.66 13 4 C12.67 4.99 12.34 5.98 12 7 C12.66 7 13.32 7 14 7 C14 6.34 14 5.68 14 5 C17.01031744 4.06576355 17.86650268 3.95550089 21 5 C23.14255793 4.61067144 23.14255793 4.61067144 25 4 C25.33 4.99 25.66 5.98 26 7 C26.99 7 27.98 7 29 7 C28.67 6.01 28.34 5.02 28 4 C29.98 3.67 31.96 3.34 34 3 C33.67 4.32 33.34 5.64 33 7 C32.34 7 31.68 7 31 7 C30.01 7.66 29.02 8.32 28 9 C25.33404365 9.16986115 22.78669298 9.23306051 20.125 9.1875 C19.06345703 9.1865332 19.06345703 9.1865332 17.98046875 9.18554688 C14.19721634 9.15384364 10.67553621 8.89759084 7 8 C5.948125 7.7525 4.89625 7.505 3.8125 7.25 C1 6 1 6 -0.375 3.375 C-0.58125 2.59125 -0.7875 1.8075 -1 1 C-0.67 0.67 -0.34 0.34 0 0 Z " fill="#E76E29" transform="translate(29,63)"/>
<path d="M0 0 C6.29694547 5.18277421 11.26178484 11.04801302 12.3125 19.37109375 C12.68079361 26.76529624 11.27125528 32.52755767 6.96484375 38.6171875 C5.97484375 39.2771875 4.98484375 39.9371875 3.96484375 40.6171875 C5.09906357 38.34874785 6.24542027 36.12972123 7.51171875 33.9296875 C10.30155463 27.57006163 10.034528 19.76221397 8.30859375 13.07421875 C5.57436253 6.98112591 0.1517823 2.09196292 -6.03515625 -0.3828125 C-8.62670544 -0.62311209 -8.62670544 -0.62311209 -11.28515625 -0.5078125 C-12.62320313 -0.48074219 -12.62320313 -0.48074219 -13.98828125 -0.453125 C-14.66375 -0.42992187 -15.33921875 -0.40671875 -16.03515625 -0.3828125 C-16.36515625 0.2771875 -16.69515625 0.9371875 -17.03515625 1.6171875 C-17.03515625 0.6271875 -17.03515625 -0.3628125 -17.03515625 -1.3828125 C-24.1214628 -0.22243484 -24.1214628 -0.22243484 -30.03515625 3.6171875 C-30.69515625 3.2871875 -31.35515625 2.9571875 -32.03515625 2.6171875 C-30.95766183 1.79696001 -29.87286117 0.98632581 -28.78515625 0.1796875 C-28.181875 -0.27277344 -27.57859375 -0.72523437 -26.95703125 -1.19140625 C-19.35483494 -5.9041499 -7.22923922 -4.76564373 0 0 Z " fill="#322417" transform="translate(63.03515625,15.3828125)"/>
<path d="M0 0 C3.73869347 2.4120603 3.73869347 2.4120603 4.75 4.6875 C5.35877485 10.31866737 5.56662061 14.86675879 3 20 C2.34 19.34 1.68 18.68 1 18 C-0.98356483 17.28591666 -2.98315437 16.61382258 -5 16 C-5.25 8.375 -5.25 8.375 -3 5 C-2.01 4.67 -1.02 4.34 0 4 C0 2.68 0 1.36 0 0 Z " fill="#292929" transform="translate(133,27)"/>
<path d="M0 0 C1.08667969 -0.01160156 1.08667969 -0.01160156 2.1953125 -0.0234375 C5.99388493 -0.00942063 7.76837084 0.09558056 11 2.25 C9.68 2.25 8.36 2.25 7 2.25 C7.33 3.9 7.66 5.55 8 7.25 C6.0625 7.8125 6.0625 7.8125 4 8.25 C3 7.25 3 7.25 2.9375 4.6875 C2.958125 3.883125 2.97875 3.07875 3 2.25 C2.01 2.25 1.02 2.25 0 2.25 C0 4.23 0 6.21 0 8.25 C1.32 8.91 2.64 9.57 4 10.25 C-1.11918146 10.4265235 -5.24983365 10.4512966 -10 8.25 C-10.33 7.26 -10.66 6.27 -11 5.25 C-8.35261084 3.7893715 -7.10551666 3.25 -4 3.25 C-4 2.59 -4 1.93 -4 1.25 C-6.31 1.58 -8.62 1.91 -11 2.25 C-7.26332113 -0.24111925 -4.32129024 -0.04613477 0 0 Z " fill="#D5CB45" transform="translate(48,1.75)"/>
<path d="M0 0 C3.03915817 1.32029002 4.80190355 3.31460007 6.90625 5.828125 C6.90625 7.148125 6.90625 8.468125 6.90625 9.828125 C5.96652344 10.19164062 5.96652344 10.19164062 5.0078125 10.5625 C4.19054687 10.89765625 3.37328125 11.2328125 2.53125 11.578125 C1.71914062 11.90296875 0.90703125 12.2278125 0.0703125 12.5625 C-2.42690139 14.02296444 -3.07619259 15.16682101 -4.09375 17.828125 C-4.75375 16.838125 -5.41375 15.848125 -6.09375 14.828125 C-5.10375 14.10625 -4.11375 13.384375 -3.09375 12.640625 C-0.40156491 10.45529348 -0.40156491 10.45529348 0.28125 7.015625 C0.1575 6.29375 0.03375 5.571875 -0.09375 4.828125 C-1.08375 4.828125 -2.07375 4.828125 -3.09375 4.828125 C-2.43375 6.478125 -1.77375 8.128125 -1.09375 9.828125 C-2.08375 10.158125 -3.07375 10.488125 -4.09375 10.828125 C-4.42375 9.508125 -4.75375 8.188125 -5.09375 6.828125 C-5.42375 7.488125 -5.75375 8.148125 -6.09375 8.828125 C-7.08375 8.828125 -8.07375 8.828125 -9.09375 8.828125 C-9.42375 7.838125 -9.75375 6.848125 -10.09375 5.828125 C-8.85640016 4.79199467 -7.60330363 3.77464698 -6.34375 2.765625 C-5.64765625 2.19714844 -4.9515625 1.62867188 -4.234375 1.04296875 C-2.09375 -0.171875 -2.09375 -0.171875 0 0 Z " fill="#B63C21" transform="translate(87.09375,48.171875)"/>
<path d="M0 0 C1.32 0.33 2.64 0.66 4 1 C4.12375 2.19625 4.2475 3.3925 4.375 4.625 C4.70775392 7.39958052 5.18234744 9.51665107 6.125 12.1875 C7.10840289 15.34843786 7.09030435 16.89682608 6 20 C4.4375 21.8125 4.4375 21.8125 3 23 C2.01 22.34 1.02 21.68 0 21 C0 16 0 11 0 6 C-0.66 5.67 -1.32 5.34 -2 5 C-1.34 3.35 -0.68 1.7 0 0 Z " fill="#FAD639" transform="translate(76,26)"/>
<path d="M0 0 C1.32 1.32 2.64 2.64 4 4 C3.34 4 2.68 4 2 4 C2.061875 5.051875 2.12375 6.10375 2.1875 7.1875 C1.98686974 11.26698196 1.18607857 12.67716058 -1 16 C-1.165 16.886875 -1.33 17.77375 -1.5 18.6875 C-2 21 -2 21 -5 23 C-7.1875 22.625 -7.1875 22.625 -9 22 C-9 21.01 -9 20.02 -9 19 C-8.34 19 -7.68 19 -7 19 C-7.33 17.68 -7.66 16.36 -8 15 C-7.01 14.67 -6.02 14.34 -5 14 C-5.66 13.01 -6.32 12.02 -7 11 C-6.67 10.34 -6.34 9.68 -6 9 C-3.4375 8.375 -3.4375 8.375 -1 8 C-1.350625 7.38125 -1.70125 6.7625 -2.0625 6.125 C-2.371875 5.42375 -2.68125 4.7225 -3 4 C-2.67 3.34 -2.34 2.68 -2 2 C-1.34 2 -0.68 2 0 2 C0 1.34 0 0.68 0 0 Z " fill="#F1D439" transform="translate(24,14)"/>
<path d="M0 0 C0.99 0.33 1.98 0.66 3 1 C3 2.32 3 3.64 3 5 C2.34 5 1.68 5 1 5 C1 5.66 1 6.32 1 7 C1.70640625 6.59523438 2.4128125 6.19046875 3.140625 5.7734375 C6 5 6 5 8.859375 6.4140625 C9.81328125 7.14367188 10.7671875 7.87328125 11.75 8.625 C13.19632813 9.69621094 13.19632813 9.69621094 14.671875 10.7890625 C17 13 17 13 18 17 C15.03 16.01 12.06 15.02 9 14 C9 13.34 9 12.68 9 12 C6.50935112 11.31292445 4.62113708 11 2 11 C0.0750353 9.17806158 -1.37535531 7.10764717 -3 5 C-1.125 1.125 -1.125 1.125 0 0 Z " fill="#D74123" transform="translate(10,50)"/>
<path d="M0 0 C1.32 0 2.64 0 4 0 C4 0.99 4 1.98 4 3 C-3.16836066 8.59481807 -9.99950517 11.05145968 -19 10 C-21.97882347 9.28215238 -24.21284368 8.36824037 -27 7 C-27.33 6.01 -27.66 5.02 -28 4 C-26.68 3.67 -25.36 3.34 -24 3 C-24.33 3.99 -24.66 4.98 -25 6 C-23.68 6.33 -22.36 6.66 -21 7 C-20.67 6.34 -20.34 5.68 -20 5 C-20 5.66 -20 6.32 -20 7 C-17.36 7.33 -14.72 7.66 -12 8 C-12 7.01 -12 6.02 -12 5 C-13.32 5.33 -14.64 5.66 -16 6 C-16 5.01 -16 4.02 -16 3 C-14.329375 2.7834375 -14.329375 2.7834375 -12.625 2.5625 C-9.17857953 2.21627965 -9.17857953 2.21627965 -7 1 C-6.34 1.66 -5.68 2.32 -5 3 C-6.98 3.66 -8.96 4.32 -11 5 C-11 5.66 -11 6.32 -11 7 C-10.21625 6.649375 -9.4325 6.29875 -8.625 5.9375 C-7.75875 5.628125 -6.8925 5.31875 -6 5 C-5.34 5.33 -4.68 5.66 -4 6 C-3.67 5.01 -3.34 4.02 -3 3 C-3 3.66 -3 4.32 -3 5 C-1.45833358 3.62514468 -1.45833358 3.62514468 0 2 C0 1.34 0 0.68 0 0 Z " fill="#37172F" transform="translate(63,55)"/>
<path d="M0 0 C0.61875 0.350625 1.2375 0.70125 1.875 1.0625 C2.57625 1.371875 3.2775 1.68125 4 2 C4.66 1.67 5.32 1.34 6 1 C6 1.99 6 2.98 6 4 C6.99 4 7.98 4 9 4 C8.34 5.32 7.68 6.64 7 8 C5.68 8 4.36 8 3 8 C3.33 8.99 3.66 9.98 4 11 C0.04476345 13.75668002 -3.22423661 14.5317879 -8 15 C-8 14.34 -8 13.68 -8 13 C-6.02 12.34 -4.04 11.68 -2 11 C-2 10.34 -2 9.68 -2 9 C-1.34 9 -0.68 9 0 9 C-0.185625 7.88625 -0.37125 6.7725 -0.5625 5.625 C-1 2 -1 2 0 0 Z " fill="#4C795F" transform="translate(60,47)"/>
<path d="M0 0 C0.99 0.33 1.98 0.66 3 1 C3 2.65 3 4.3 3 6 C3.66 5.67 4.32 5.34 5 5 C4.67 6.32 4.34 7.64 4 9 C4.598125 8.34 5.19625 7.68 5.8125 7 C8 5 8 5 11 5 C11 5.66 11 6.32 11 7 C10.01 7.66 9.02 8.32 8 9 C8 9.66 8 10.32 8 11 C8.66 11.33 9.32 11.66 10 12 C10 12.99 10 13.98 10 15 C10.99 15.33 11.98 15.66 13 16 C13.3721042 17.32303717 13.70630173 18.65737935 14 20 C14.66 20.33 15.32 20.66 16 21 C15.34 22.32 14.68 23.64 14 25 C13.731875 24.43152344 13.46375 23.86304687 13.1875 23.27734375 C10.40374258 17.79224277 7.42119527 14.19993641 2.57421875 10.41015625 C2.05472656 9.94480469 1.53523438 9.47945312 1 9 C1 8.34 1 7.68 1 7 C0.34 7 -0.32 7 -1 7 C-0.67 4.69 -0.34 2.38 0 0 Z " fill="#F7D939" transform="translate(60,6)"/>
<path d="M0 0 C0.66 0.33 1.32 0.66 2 1 C-2.21295445 5.42360217 -5.4941796 7.93548351 -11.79296875 8.09765625 C-13.25784438 8.09102785 -14.72270378 8.07913087 -16.1875 8.0625 C-16.93708984 8.05798828 -17.68667969 8.05347656 -18.45898438 8.04882812 C-20.30602383 8.03706354 -22.15302213 8.01912865 -24 8 C-21.70665406 6.47110271 -19.4883456 5.10224901 -17.0625 3.8125 C-16.39347656 3.44769531 -15.72445312 3.08289063 -15.03515625 2.70703125 C-11.95144424 1.63572247 -9.96848543 2.59386095 -7.0625 3.8125 C-4.72380648 4.24956063 -4.72380648 4.24956063 -2.25 2.0625 C-1.5075 1.381875 -0.765 0.70125 0 0 Z " fill="#FBEFEC" transform="translate(91,64)"/>
<path d="M0 0 C2.4375 0.75 2.4375 0.75 4.4375 2.75 C4.4375 4.07 4.4375 5.39 4.4375 6.75 C5.0975 6.75 5.7575 6.75 6.4375 6.75 C6.1075 8.07 5.7775 9.39 5.4375 10.75 C4.4475 10.75 3.4575 10.75 2.4375 10.75 C2.4375 10.09 2.4375 9.43 2.4375 8.75 C1.7775 8.42 1.1175 8.09 0.4375 7.75 C0.1075 6.76 -0.2225 5.77 -0.5625 4.75 C-1.2225 5.41 -1.8825 6.07 -2.5625 6.75 C-3.8825 6.75 -5.2025 6.75 -6.5625 6.75 C-6.25 4.375 -6.25 4.375 -5.5625 1.75 C-2.5625 -0.25 -2.5625 -0.25 0 0 Z " fill="#5F1B2C" transform="translate(49.5625,23.25)"/>
<path d="M0 0 C1.0326802 2.78823655 1.04509293 3.8677274 0.0625 6.75 C-0.288125 7.4925 -0.63875 8.235 -1 9 C0.32 8.34 1.64 7.68 3 7 C2.25 11.75 2.25 11.75 0 14 C0 12.68 0 11.36 0 10 C-0.99 10 -1.98 10 -3 10 C-2.67 12.31 -2.34 14.62 -2 17 C-2.66 17.33 -3.32 17.66 -4 18 C-4.66 18.99 -5.32 19.98 -6 21 C-6 10 -6 10 -5 7 C-4.34 7.33 -3.68 7.66 -3 8 C-3 7.34 -3 6.68 -3 6 C-3.99 5.34 -4.98 4.68 -6 4 C-5.67 3.01 -5.34 2.02 -5 1 C-4.34 1.33 -3.68 1.66 -3 2 C-3 2.66 -3 3.32 -3 4 C-2.34 4 -1.68 4 -1 4 C-0.67 2.68 -0.34 1.36 0 0 Z " fill="#6C5851" transform="translate(69,26)"/>
<path d="M0 0 C-0.99 0.495 -0.99 0.495 -2 1 C-1.34 2.98 -0.68 4.96 0 7 C-1.32 7.33 -2.64 7.66 -4 8 C-4 8.66 -4 9.32 -4 10 C-5.8125 10.6875 -5.8125 10.6875 -8 11 C-9.75 9.5625 -9.75 9.5625 -11 8 C-7.59459459 1.43243243 -7.59459459 1.43243243 -4.9375 -0.5 C-3 -1 -3 -1 0 0 Z " fill="#D8B52E" transform="translate(37,5)"/>
<path d="M0 0 C0.17563129 4.4785979 0.22085338 8.02584132 -2 12 C-2.99 12.33 -3.98 12.66 -5 13 C-7 11 -7 11 -7.3125 7.625 C-6.82398013 1.95816955 -5.84868368 0 0 0 Z " fill="#EBEBEB" transform="translate(164,32)"/>
<path d="M0 0 C2.64 0.33 5.28 0.66 8 1 C7.67 1.66 7.34 2.32 7 3 C5.35 2.67 3.7 2.34 2 2 C1.34 3.98 0.68 5.96 0 8 C0.9075 7.979375 1.815 7.95875 2.75 7.9375 C5.45055394 7.98943373 7.42786945 8.35696736 10 9 C10.66 8.67 11.32 8.34 12 8 C13.99960012 7.960008 16.00047242 7.95653201 18 8 C17.67 6.02 17.34 4.04 17 2 C15.02 2 13.04 2 11 2 C14 0 14 0 18 0 C19.49821059 3.37097383 20 5.20442119 20 9 C14.65802611 10.43639742 10.48528336 11.34084704 5 10 C3 9.66666667 1 9.33333333 -1 9 C-0.67 6.03 -0.34 3.06 0 0 Z " fill="#D4CE5B" transform="translate(39,39)"/>
<path d="M0 0 C0 2.97 0 5.94 0 9 C-0.99 9 -1.98 9 -3 9 C-3 8.01 -3 7.02 -3 6 C-3.78375 6.185625 -4.5675 6.37125 -5.375 6.5625 C-8 7 -8 7 -10 6 C-9.67 4.35 -9.34 2.7 -9 1 C-2.25 -1.125 -2.25 -1.125 0 0 Z " fill="#242424" transform="translate(107,17)"/>
<path d="M0 0 C-0.33 0.99 -0.66 1.98 -1 3 C-3.31 3 -5.62 3 -8 3 C-8 3.99 -8 4.98 -8 6 C-6.68 5.67 -5.36 5.34 -4 5 C-4 5.99 -4 6.98 -4 8 C-8.81938524 8.23509196 -12.46298506 7.45184478 -17 6 C-16.67 5.01 -16.34 4.02 -16 3 C-15.34 3.33 -14.68 3.66 -14 4 C-13.34 3.67 -12.68 3.34 -12 3 C-12.66 2.34 -13.32 1.68 -14 1 C-12.41693353 0.83081732 -10.83353281 0.66476064 -9.25 0.5 C-7.92742188 0.36078125 -7.92742188 0.36078125 -6.578125 0.21875 C-4 0 -4 0 0 0 Z " fill="#705F6D" transform="translate(55,55)"/>
<path d="M0 0 C0.33 0 0.66 0 1 0 C1.33 1.98 1.66 3.96 2 6 C3.98 6.66 5.96 7.32 8 8 C7.125 11.875 7.125 11.875 6 13 C3.21518844 13.29313806 1.6038477 13.40975379 -0.75 11.8125 C-2.28838998 9.58183452 -2.64005447 7.6635969 -3 5 C-2.34 4.67 -1.68 4.34 -1 4 C-0.34786708 1.97536745 -0.34786708 1.97536745 0 0 Z " fill="#212021" transform="translate(127,37)"/>
<path d="M0 0 C1.9375 1.1875 1.9375 1.1875 3 3 C2.80250247 6.85120178 1.46742938 9.10345247 -1 12 C-1.33 9.69 -1.66 7.38 -2 5 C-3.65 4.67 -5.3 4.34 -7 4 C-7 4.66 -7 5.32 -7 6 C-7.99 6 -8.98 6 -10 6 C-7.90382454 0.16065407 -6.23468203 -0.50895363 0 0 Z " fill="#202020" transform="translate(165,27)"/>
<path d="M0 0 C0.99 0 1.98 0 3 0 C4.12256131 2.24512262 4.13413762 3.51456649 4.125 6 C4.12757813 6.70125 4.13015625 7.4025 4.1328125 8.125 C4 10 4 10 3 12 C1.35 11.67 -0.3 11.34 -2 11 C-2.25 3.375 -2.25 3.375 0 0 Z " fill="#EFEFEF" transform="translate(130,32)"/>
<path d="M0 0 C0.99 0.33 1.98 0.66 3 1 C3 4.3 3 7.6 3 11 C1.34385343 11.38218767 -0.32457024 11.71395102 -2 12 C-3 11 -3 11 -3.25 7.6875 C-2.99337817 3.90232794 -2.56295176 2.66974142 0 0 Z " fill="#ECECEC" transform="translate(115,32)"/>
<path d="M0 0 C0.33 0 0.66 0 1 0 C1 1.65 1 3.3 1 5 C2.11375 5.103125 3.2275 5.20625 4.375 5.3125 C6.169375 5.6528125 6.169375 5.6528125 8 6 C10 9 10 9 10 12 C9.34 12 8.68 12 8 12 C8 14.97 8 17.94 8 21 C6.68 21.33 5.36 21.66 4 22 C4.33 21.01 4.66 20.02 5 19 C5.06802967 17.27204648 5.08495645 15.54164635 5.0625 13.8125 C5.05347656 12.91144531 5.04445313 12.01039062 5.03515625 11.08203125 C5.02355469 10.39496094 5.01195312 9.70789062 5 9 C4.01 8.67 3.02 8.34 2 8 C2 7.34 2 6.68 2 6 C1.34 6 0.68 6 0 6 C-0.38218767 4.34385343 -0.71395102 2.67542976 -1 1 C-0.67 0.67 -0.34 0.34 0 0 Z " fill="#311556" transform="translate(50,14)"/>
<path d="M0 0 C0.66 0.33 1.32 0.66 2 1 C2 1.99 2 2.98 2 4 C2.66 4 3.32 4 4 4 C4.33 2.68 4.66 1.36 5 0 C5 1.65 5 3.3 5 5 C7.31 5 9.62 5 12 5 C12.33 5.66 12.66 6.32 13 7 C4.29942593 7.6727248 -1.55361975 6.61280192 -9 2 C-5.93109813 0.46554906 -3.29905734 1.45015711 0 2 C0 1.34 0 0.68 0 0 Z " fill="#C24022" transform="translate(28,65)"/>
<path d="M0 0 C0 0.66 0 1.32 0 2 C-1.32 2.33 -2.64 2.66 -4 3 C-4.04898438 3.63808594 -4.09796875 4.27617188 -4.1484375 4.93359375 C-4.22320312 5.75988281 -4.29796875 6.58617187 -4.375 7.4375 C-4.44460937 8.26121094 -4.51421875 9.08492187 -4.5859375 9.93359375 C-4.72257812 10.61550781 -4.85921875 11.29742187 -5 12 C-5.99 12.495 -5.99 12.495 -7 13 C-8.13350534 15.01669827 -8.13350534 15.01669827 -9 17 C-9.33 15.35 -9.66 13.7 -10 12 C-9.34 12 -8.68 12 -8 12 C-8.33 9.36 -8.66 6.72 -9 4 C-9.99 4.99 -10.98 5.98 -12 7 C-11.42655063 4.13275314 -11.1385485 3.1385485 -9 1 C-2.44680851 -1.22340426 -2.44680851 -1.22340426 0 0 Z " fill="#2A1B4A" transform="translate(42,35)"/>
<path d="M0 0 C3 1 3 1 4 3 C5.32 2.34 6.64 1.68 8 1 C8.22732116 3.80362763 8.34081872 5.46186517 6.8125 7.875 C5 9 5 9 2.4375 8.75 C0 8 0 8 -2 7 C-1.125 2.25 -1.125 2.25 0 0 Z " fill="#262F45" transform="translate(26,26)"/>
<path d="M0 0 C0.33 1.32 0.66 2.64 1 4 C1.66 4 2.32 4 3 4 C2.67 6.31 2.34 8.62 2 11 C1.67 10.34 1.34 9.68 1 9 C-1.475 10.485 -1.475 10.485 -4 12 C-4.66 10.02 -5.32 8.04 -6 6 C-5.34 6 -4.68 6 -4 6 C-3.67 4.35 -3.34 2.7 -3 1 C-2.01 0.67 -1.02 0.34 0 0 Z " fill="#2A1859" transform="translate(33,18)"/>
<path d="M0 0 C4 5 4 5 5.8125 7.5625 C8.58462991 10.65144475 11.32683093 12.0927776 15 14 C10.90885386 15.36371538 9.27245594 14.09148185 5.49609375 12.32421875 C1.4597099 10.18285079 -2.27657504 7.64072692 -6 5 C-4.140625 4.37890625 -4.140625 4.37890625 -2 4 C0.25 5.9375 0.25 5.9375 2 8 C1.67 7.4225 1.34 6.845 1 6.25 C0 4 0 4 0 0 Z " fill="#F0D649" transform="translate(23,48)"/>
<path d="M0 0 C0.33 0.99 0.66 1.98 1 3 C1.66 3 2.32 3 3 3 C2.50746057 5.21642742 1.92485227 7.1690824 1 9.25 C-0.30605918 12.84166274 -0.61352165 16.19962955 -1 20 C-1.33 20 -1.66 20 -2 20 C-2.33 17.69 -2.66 15.38 -3 13 C-3.99 13.495 -3.99 13.495 -5 14 C-4.46515599 8.65155992 -2.53309233 4.64203897 0 0 Z " fill="#272626" transform="translate(96,20)"/>
<path d="M0 0 C0 0.66 0 1.32 0 2 C-1.98 2.99 -3.96 3.98 -6 5 C-5.67 5.66 -5.34 6.32 -5 7 C-2.47266765 7.65555119 -2.47266765 7.65555119 0 8 C-2.70269923 10.70269923 -5.4252738 11.70570258 -9 13 C-11.4375 12.6875 -11.4375 12.6875 -13 12 C-12.34 12 -11.68 12 -11 12 C-11 11.34 -11 10.68 -11 10 C-10.34 10 -9.68 10 -9 10 C-8.67 8.02 -8.34 6.04 -8 4 C-8.99 3.67 -9.98 3.34 -11 3 C-9.73160474 2.49384702 -8.46016898 1.99530901 -7.1875 1.5 C-6.12595703 1.08234375 -6.12595703 1.08234375 -5.04296875 0.65625 C-3 0 -3 0 0 0 Z " fill="#F8E23C" transform="translate(44,3)"/>
<path d="M0 0 C0.86625 0.4640625 0.86625 0.4640625 1.75 0.9375 C3.88371067 1.9450856 5.6614904 2.68819872 8 3 C8.66 2.34 9.32 1.68 10 1 C13.13628092 1.42219166 15.88758095 2.75757367 18.75 4.0625 C19.54921875 4.42472656 20.3484375 4.78695312 21.171875 5.16015625 C21.77515625 5.43730469 22.3784375 5.71445313 23 6 C23 6.33 23 6.66 23 7 C19.37 7 15.74 7 12 7 C11.67 5.68 11.34 4.36 11 3 C10.608125 3.495 10.21625 3.99 9.8125 4.5 C8 6 8 6 5.5 6.4375 C3 6 3 6 1.1875 4.125 C0 2 0 2 0 0 Z " fill="#FDF6F4" transform="translate(6,65)"/>
<path d="M0 0 C0.99 0 1.98 0 3 0 C3.33 1.65 3.66 3.3 4 5 C-0.30769231 8.07692308 -0.30769231 8.07692308 -3.8125 7.6875 C-4.534375 7.460625 -5.25625 7.23375 -6 7 C-5.67 7.99 -5.34 8.98 -5 10 C-7.31 9.67 -9.62 9.34 -12 9 C-8.87378374 5.60582235 -6.43458973 3.3937282 -2 2 C-1.67 2.99 -1.34 3.98 -1 5 C-0.34 4.34 0.32 3.68 1 3 C0.67 2.01 0.34 1.02 0 0 Z " fill="#F27831" transform="translate(84,53)"/>
<path d="M0 0 C0.99 0.66 1.98 1.32 3 2 C1.68 3.32 0.36 4.64 -1 6 C-0.34 6 0.32 6 1 6 C1 6.66 1 7.32 1 8 C-1.76250036 9.38125018 -3.94731099 9.19079306 -7 9 C-7.66 8.34 -8.32 7.68 -9 7 C-8.625 4.875 -8.625 4.875 -8 3 C-6.865625 2.87625 -5.73125 2.7525 -4.5625 2.625 C-3.386875 2.41875 -2.21125 2.2125 -1 2 C-0.67 1.34 -0.34 0.68 0 0 Z " fill="#313131" transform="translate(162,52)"/>
<path d="M0 0 C4.9116255 4.29239477 6.67956749 10.85744499 7.32421875 17.1796875 C7.40995494 22.46895087 7.18204292 27.09040344 5 32 C4.67 32 4.34 32 4 32 C4.10699219 30.94941406 4.21398437 29.89882813 4.32421875 28.81640625 C5.04908707 20.73215105 5.28181056 14.6138005 2 7 C2 6.34 2 5.68 2 5 C1.01 4.67 0.02 4.34 -1 4 C-0.67 2.68 -0.34 1.36 0 0 Z " fill="#C8C25F" transform="translate(78,18)"/>
<path d="M0 0 C0.66 0.33 1.32 0.66 2 1 C2 1.99 2 2.98 2 4 C2.99 4.33 3.98 4.66 5 5 C4.67 6.32 4.34 7.64 4 9 C2.02 9 0.04 9 -2 9 C-2.33 7.68 -2.66 6.36 -3 5 C-3.66 5 -4.32 5 -5 5 C-5 4.34 -5 3.68 -5 3 C-4.360625 2.87625 -3.72125 2.7525 -3.0625 2.625 C-2.0415625 2.315625 -2.0415625 2.315625 -1 2 C-0.67 1.34 -0.34 0.68 0 0 Z " fill="#B0302E" transform="translate(48,27)"/>
<path d="M0 0 C0.66 0.66 1.32 1.32 2 2 C-2.19575842 4.09787921 -6.18939187 4.41571245 -10.79296875 4.75390625 C-13.03933881 4.87577741 -13.03933881 4.87577741 -15 6 C-15 6.66 -15 7.32 -15 8 C-15.66 8 -16.32 8 -17 8 C-17 7.34 -17 6.68 -17 6 C-18.32 5.34 -19.64 4.68 -21 4 C-21 3.01 -21 2.02 -21 1 C-20.05125 1.165 -19.1025 1.33 -18.125 1.5 C-11.9407783 2.36906578 -5.55857092 3.23291596 0 0 Z " fill="#B24629" transform="translate(58,62)"/>
<path d="M0 0 C0.66 0.33 1.32 0.66 2 1 C1.67 4.3 1.34 7.6 1 11 C0.34 10.67 -0.32 10.34 -1 10 C-1 9.34 -1 8.68 -1 8 C-2.65 8 -4.3 8 -6 8 C-6.66 6.68 -7.32 5.36 -8 4 C-6.68 4 -5.36 4 -4 4 C-4.33 3.01 -4.66 2.02 -5 1 C-4.34 1 -3.68 1 -3 1 C-2.67 1.66 -2.34 2.32 -2 3 C-1.34 2.01 -0.68 1.02 0 0 Z " fill="#517E67" transform="translate(35,47)"/>
<path d="M0 0 C0 0.99 0 1.98 0 3 C-3.63423209 5.32590854 -6.77088331 5.16265833 -11 5 C-10.67 3.35 -10.34 1.7 -10 0 C-6.33694766 -0.74926071 -3.57644848 -1.2380014 0 0 Z " fill="#301749" transform="translate(55,51)"/>
<path d="M0 0 C0.99 0.33 1.98 0.66 3 1 C2.69381595 4.67420866 2.24228216 5.78135513 -0.5625 8.3125 C-1.366875 8.869375 -2.17125 9.42625 -3 10 C-3.28875 9.38125 -3.5775 8.7625 -3.875 8.125 C-4.93720042 5.86674235 -4.93720042 5.86674235 -7 4 C-5.824375 3.566875 -5.824375 3.566875 -4.625 3.125 C-1.90328368 2.15087746 -1.90328368 2.15087746 0 0 Z " fill="#2F2F2F" transform="translate(104,39)"/>
<path d="M0 0 C0.94875 0.04125 1.8975 0.0825 2.875 0.125 C2.875 0.785 2.875 1.445 2.875 2.125 C3.865 2.455 4.855 2.785 5.875 3.125 C5.545 4.445 5.215 5.765 4.875 7.125 C3.555 6.795 2.235 6.465 0.875 6.125 C0.875 4.475 0.875 2.825 0.875 1.125 C-0.115 1.125 -1.105 1.125 -2.125 1.125 C-2.125 3.105 -2.125 5.085 -2.125 7.125 C-3.115 7.125 -4.105 7.125 -5.125 7.125 C-5.25 4.75 -5.25 4.75 -5.125 2.125 C-3.125 0.125 -3.125 0.125 0 0 Z " fill="#D8A710" transform="translate(50.125,2.875)"/>
<path d="M0 0 C0.99 0 1.98 0 3 0 C4.85776765 3.13498292 5.20140476 5.37471432 5 9 C3.35 9.33 1.7 9.66 0 10 C-0.19412181 8.52168779 -0.38012131 7.04230684 -0.5625 5.5625 C-0.66691406 4.73878906 -0.77132813 3.91507813 -0.87890625 3.06640625 C-0.91886719 2.38449219 -0.95882813 1.70257813 -1 1 C-0.67 0.67 -0.34 0.34 0 0 Z " fill="#DBAF1C" transform="translate(16,38)"/>
<path d="M0 0 C0.66 0 1.32 0 2 0 C4.69707634 6.55004254 6.53699151 11.88486245 6 19 C5.34 18.67 4.68 18.34 4 18 C3.40234375 16.109375 3.40234375 16.109375 2.9375 13.75 C2.76992187 12.93917969 2.60234375 12.12835938 2.4296875 11.29296875 C2.10417493 9.55591532 1.82284176 7.81050893 1.5625 6.0625 C1.13834965 3.61789145 1.13834965 3.61789145 -2 2 C-1.34 2 -0.68 2 0 2 C0 1.34 0 0.68 0 0 Z " fill="#F8E330" transform="translate(78,23)"/>
<path d="M0 0 C0.268125 0.639375 0.53625 1.27875 0.8125 1.9375 C1.88667752 4.33131686 1.88667752 4.33131686 5 5 C5.99 5 6.98 5 8 5 C6.75 6.5625 6.75 6.5625 5 8 C2.34286449 7.82285763 0.83496148 6.89843783 -1.4375 5.5 C-4.03026793 3.98228219 -6.04929976 3.42152861 -9 3 C-8.67 2.34 -8.34 1.68 -8 1 C-5.35139573 0.40644386 -2.70802678 0.25790731 0 0 Z " fill="#AF3937" transform="translate(9,61)"/>
<path d="M0 0 C0.33 1.32 0.66 2.64 1 4 C1.66 4 2.32 4 3 4 C4 7 4 7 4 10 C2.54293274 10.50367757 1.08429904 11.00282556 -0.375 11.5 C-1.18710937 11.7784375 -1.99921875 12.056875 -2.8359375 12.34375 C-5 13 -5 13 -7 13 C-7 12.34 -7 11.68 -7 11 C-5.02 10.34 -3.04 9.68 -1 9 C-1 8.34 -1 7.68 -1 7 C-0.34 7 0.32 7 1 7 C0.67 4.69 0.34 2.38 0 0 Z " fill="#49405F" transform="translate(59,49)"/>
<path d="M0 0 C-0.33 0.66 -0.66 1.32 -1 2 C-2.65 2 -4.3 2 -6 2 C-5.42655063 4.86724686 -5.1385485 5.8614515 -3 8 C-4.32 8 -5.64 8 -7 8 C-7 9.32 -7 10.64 -7 12 C-7.66 12 -8.32 12 -9 12 C-9.65277096 8.9752791 -10.12251434 6.10014545 -10 3 C-6.86880962 -0.86794106 -4.69275771 -1.6089455 0 0 Z " fill="#F8E930" transform="translate(24,21)"/>
<path d="M0 0 C0.556875 0.268125 1.11375 0.53625 1.6875 0.8125 C0.41286799 3.36176402 -0.74667043 3.68051636 -3.3125 4.8125 C-4.3025 5.1425 -5.2925 5.4725 -6.3125 5.8125 C-6.3125 6.4725 -6.3125 7.1325 -6.3125 7.8125 C-5.6525 7.8125 -4.9925 7.8125 -4.3125 7.8125 C-3.6525 9.4625 -2.9925 11.1125 -2.3125 12.8125 C-3.6325 12.4825 -4.9525 12.1525 -6.3125 11.8125 C-6.3125 11.1525 -6.3125 10.4925 -6.3125 9.8125 C-6.9725 9.8125 -7.6325 9.8125 -8.3125 9.8125 C-8.00654824 6.24306285 -7.28825359 4.78235581 -5 1.9375 C-2.3125 -0.1875 -2.3125 -0.1875 0 0 Z " fill="#A54943" transform="translate(11.3125,48.1875)"/>
<path d="M0 0 C0.99 0 1.98 0 3 0 C2.979375 1.093125 2.95875 2.18625 2.9375 3.3125 C2.81455548 6.94384191 2.81455548 6.94384191 4 10 C3.67 10.66 3.34 11.32 3 12 C1.35 12 -0.3 12 -2 12 C-1.67 10.35 -1.34 8.7 -1 7 C-0.34 7 0.32 7 1 7 C0.67 4.69 0.34 2.38 0 0 Z " fill="#A63930" transform="translate(66,36)"/>
<path d="M0 0 C0.309375 0.639375 0.61875 1.27875 0.9375 1.9375 C1.8345163 3.93610821 1.8345163 3.93610821 3 5 C3.03055066 8.06728639 2.71990667 11.01829701 2 14 C-0.0625 16.0625 -0.0625 16.0625 -2 17 C-2 16.01 -2 15.02 -2 14 C-1.34 14 -0.68 14 0 14 C0.33 12.02 0.66 10.04 1 8 C0.01 8.33 -0.98 8.66 -2 9 C-1.41196203 5.97580475 -0.77321882 2.98241547 0 0 Z " fill="#32253B" transform="translate(70,26)"/>
<path d="M0 0 C2.16874252 0.50603992 3.99967627 0.99983813 6 2 C6 2.99 6 3.98 6 5 C6.99 5.33 7.98 5.66 9 6 C9.3721042 7.32303717 9.70630173 8.65737935 10 10 C10.66 10.33 11.32 10.66 12 11 C11.34 12.32 10.68 13.64 10 15 C9.69707031 14.41992188 9.39414063 13.83984375 9.08203125 13.2421875 C6.45192002 8.33804164 3.71697151 4.14176825 0 0 Z " fill="#F5E14D" transform="translate(64,16)"/>
<path d="M0 0 C3.99452176 1.36955032 6.92159754 3.0926199 10 6 C10.33 7.32 10.66 8.64 11 10 C8.03 9.01 5.06 8.02 2 7 C2.33 6.34 2.66 5.68 3 5 C3.66 5.33 4.32 5.66 5 6 C5 5.34 5 4.68 5 4 C4.01 4 3.02 4 2 4 C1.34 2.68 0.68 1.36 0 0 Z " fill="#F57D37" transform="translate(17,57)"/>
<path d="M0 0 C0.33 0.66 0.66 1.32 1 2 C0.67 2.66 0.34 3.32 0 4 C1.32 3.67 2.64 3.34 4 3 C1.74109621 5.51954654 -0.417897 6.87332733 -3.5 8.25 C-4.66015625 8.78367187 -4.66015625 8.78367187 -5.84375 9.328125 C-8 10 -8 10 -11 9 C-5.25 5 -5.25 5 -3 5 C-2.690625 4.360625 -2.38125 3.72125 -2.0625 3.0625 C-1 1 -1 1 0 0 Z " fill="#E9CD54" transform="translate(70,53)"/>
<path d="M0 0 C0.99 0 1.98 0 3 0 C3.33 1.65 3.66 3.3 4 5 C5.32 5 6.64 5 8 5 C8 5.66 8 6.32 8 7 C8.66 7.33 9.32 7.66 10 8 C5.71 7.67 1.42 7.34 -3 7 C-2.01 6.67 -1.02 6.34 0 6 C0 4.02 0 2.04 0 0 Z " fill="#FCEA30" transform="translate(48,4)"/>
<path d="M0 0 C2.69082872 0.17635452 5.32851446 0.61835921 8 1 C7.67 2.98 7.34 4.96 7 7 C4.125 6.8125 4.125 6.8125 1 6 C-0.375 3.4375 -0.375 3.4375 -1 1 C-0.67 0.67 -0.34 0.34 0 0 Z " fill="#E76227" transform="translate(29,63)"/>
<path d="M0 0 C0.66 0.33 1.32 0.66 2 1 C1.67 2.32 1.34 3.64 1 5 C1.556875 4.79375 2.11375 4.5875 2.6875 4.375 C5.659538 3.89304789 7.31979941 4.73434972 10 6 C10 6.33 10 6.66 10 7 C8.02 7.33 6.04 7.66 4 8 C4 7.34 4 6.68 4 6 C3.0925 6.2475 2.185 6.495 1.25 6.75 C-2 7 -2 7 -4.375 5.0625 C-5.179375 4.0415625 -5.179375 4.0415625 -6 3 C-4.33333333 3 -2.66666667 3 -1 3 C-0.67 2.01 -0.34 1.02 0 0 Z " fill="#221F42" transform="translate(36,52)"/>
<path d="M0 0 C1.32 0.33 2.64 0.66 4 1 C4.33 2.65 4.66 4.3 5 6 C3.35 6.66 1.7 7.32 0 8 C0 7.34 0 6.68 0 6 C-0.66 5.67 -1.32 5.34 -2 5 C-1.34 3.35 -0.68 1.7 0 0 Z " fill="#C78612" transform="translate(76,26)"/>
<path d="M0 0 C0.99 0 1.98 0 3 0 C3.66 2.31 4.32 4.62 5 7 C3.68 7.33 2.36 7.66 1 8 C0.67 7.01 0.34 6.02 0 5 C-0.66 4.67 -1.32 4.34 -2 4 C-1.34 2.68 -0.68 1.36 0 0 Z " fill="#2A1A60" transform="translate(55,49)"/>
<path d="M0 0 C0.99 0 1.98 0 3 0 C3.6875 2.8125 3.6875 2.8125 4 6 C2.5625 7.875 2.5625 7.875 1 9 C0.01 8.34 -0.98 7.68 -2 7 C-1.34 4.69 -0.68 2.38 0 0 Z " fill="#D0960F" transform="translate(78,40)"/>
<path d="M0 0 C0.99 0 1.98 0 3 0 C3.93423645 3.01031744 4.04449911 3.86650268 3 7 C2.65179959 8.66362417 2.31595508 10.32995171 2 12 C1.34 11.67 0.68 11.34 0 11 C-0.40729228 8.67843403 -0.74438677 6.3431213 -1 4 C-0.34 4 0.32 4 1 4 C0.67 2.68 0.34 1.36 0 0 Z " fill="#2D186A" transform="translate(59,22)"/>
<path d="M0 0 C0.33 0.66 0.66 1.32 1 2 C1.928125 2.2165625 1.928125 2.2165625 2.875 2.4375 C5.47245693 3.12506213 6.44056201 3.81678681 8 6 C8.1875 8.6875 8.1875 8.6875 8 11 C7.34 11 6.68 11 6 11 C5.690625 9.824375 5.690625 9.824375 5.375 8.625 C4.19323388 5.69083714 4.19323388 5.69083714 0.875 4.6875 C-0.07375 4.460625 -1.0225 4.23375 -2 4 C-1.34 2.68 -0.68 1.36 0 0 Z " fill="#B2343F" transform="translate(48,19)"/>
<path d="M0 0 C0.33 0.66 0.66 1.32 1 2 C0.01 2.495 0.01 2.495 -1 3 C0.98 3.66 2.96 4.32 5 5 C5 5.33 5 5.66 5 6 C2.36 6.66 -0.28 7.32 -3 8 C-3.66 6.35 -4.32 4.7 -5 3 C-3.35 2.01 -1.7 1.02 0 0 Z " fill="#A34642" transform="translate(91,58)"/>
<path d="M0 0 C3 2 3 2 3.6875 4.125 C3.790625 4.74375 3.89375 5.3625 4 6 C4.99 6 5.98 6 7 6 C7 6.66 7 7.32 7 8 C0.35384615 6.52307692 0.35384615 6.52307692 -1.4375 3.875 C-1.623125 3.25625 -1.80875 2.6375 -2 2 C-1.34 1.34 -0.68 0.68 0 0 Z " fill="#E26721" transform="translate(15,55)"/>
<path d="M0 0 C1.32 0 2.64 0 4 0 C4 0.99 4 1.98 4 3 C0.10996636 6.14907485 -3.02833396 7.526508 -8 8 C-7.34 7.01 -6.68 6.02 -6 5 C-5.34 5.33 -4.68 5.66 -4 6 C-3.67 5.01 -3.34 4.02 -3 3 C-3 3.66 -3 4.32 -3 5 C-1.45833358 3.62514468 -1.45833358 3.62514468 0 2 C0 1.34 0 0.68 0 0 Z " fill="#291C21" transform="translate(63,55)"/>
<path d="M0 0 C1.32 0.66 2.64 1.32 4 2 C3.34 3.32 2.68 4.64 2 6 C2 5.34 2 4.68 2 4 C-0.475 5.485 -0.475 5.485 -3 7 C-3.66 5.02 -4.32 3.04 -5 1 C-3.68 1.33 -2.36 1.66 -1 2 C-0.67 1.34 -0.34 0.68 0 0 Z " fill="#1D1D4E" transform="translate(32,23)"/>
<path d="M0 0 C1.32 0.66 2.64 1.32 4 2 C3.01 2.495 3.01 2.495 2 3 C1.34 2.67 0.68 2.34 0 2 C0 2.66 0 3.32 0 4 C2.31 4.66 4.62 5.32 7 6 C5.68 6.99 4.36 7.98 3 9 C2.34 8.67 1.68 8.34 1 8 C1 7.01 1 6.02 1 5 C0.01 4.67 -0.98 4.34 -2 4 C-1.34 2.68 -0.68 1.36 0 0 Z " fill="#C48A0A" transform="translate(69,13)"/>
<path d="M0 0 C0 1.65 0 3.3 0 5 C-1.65 5.33 -3.3 5.66 -5 6 C-5.66 4.68 -6.32 3.36 -7 2 C-4.35261084 0.5393715 -3.10551666 0 0 0 Z " fill="#D29610" transform="translate(44,5)"/>
<path d="M0 0 C0.99 0.33 1.98 0.66 3 1 C3.33 2.65 3.66 4.3 4 6 C2.68 6.33 1.36 6.66 0 7 C0 7.66 0 8.32 0 9 C-0.99 9 -1.98 9 -3 9 C-2 6 -2 6 0 4 C0 2.68 0 1.36 0 0 Z " fill="#F9ED11" transform="translate(75,46)"/>
<path d="M0 0 C1.49821059 3.37097383 2 5.20442119 2 9 C0.68 8.67 -0.64 8.34 -2 8 C-1.34 8 -0.68 8 0 8 C-0.33 6.02 -0.66 4.04 -1 2 C-2.98 2 -4.96 2 -7 2 C-4 0 -4 0 0 0 Z " fill="#C8BC57" transform="translate(57,39)"/>
<path d="M0 0 C0.33 0 0.66 0 1 0 C1.103125 0.94875 1.20625 1.8975 1.3125 2.875 C1.68539295 6.29107501 1.68539295 6.29107501 5 8 C4.38125 8.12375 3.7625 8.2475 3.125 8.375 C0.80879168 8.87197356 0.80879168 8.87197356 -1 11 C-1.66 9.02 -2.32 7.04 -3 5 C-2.34 4.67 -1.68 4.34 -1 4 C-0.34786708 1.97536745 -0.34786708 1.97536745 0 0 Z " fill="#313131" transform="translate(127,37)"/>
<path d="M0 0 C0.66 0.66 1.32 1.32 2 2 C1.96712417 4.72869407 1.43602229 7.2966618 1 10 C0.34 10 -0.32 10 -1 10 C-1.33 10.66 -1.66 11.32 -2 12 C-2.05422947 10.5629191 -2.09289723 9.12524538 -2.125 7.6875 C-2.14820312 6.88699219 -2.17140625 6.08648437 -2.1953125 5.26171875 C-2 3 -2 3 0 0 Z " fill="#181818" transform="translate(111,31)"/>
<path d="M0 0 C1.98 0 3.96 0 6 0 C6.33 0.66 6.66 1.32 7 2 C6.01 2 5.02 2 4 2 C3.34 3.32 2.68 4.64 2 6 C1.01 5.67 0.02 5.34 -1 5 C-0.67 3.35 -0.34 1.7 0 0 Z " fill="#1D1D1D" transform="translate(98,18)"/>
<path d="M0 0 C1.32 1.32 2.64 2.64 4 4 C3.34 4 2.68 4 2 4 C1.34 5.32 0.68 6.64 0 8 C-0.99 7.34 -1.98 6.68 -3 6 C-2.67 4.68 -2.34 3.36 -2 2 C-1.34 2 -0.68 2 0 2 C0 1.34 0 0.68 0 0 Z " fill="#CB9310" transform="translate(24,14)"/>
<path d="M0 0 C0.86625 0.4640625 0.86625 0.4640625 1.75 0.9375 C3.88371067 1.9450856 5.6614904 2.68819872 8 3 C8.66 2.34 9.32 1.68 10 1 C10.99 1.33 11.98 1.66 13 2 C10.48516484 4.29927786 8.7642824 5.8544224 5.375 6.5 C3 6 3 6 1.1875 4.125 C0 2 0 2 0 0 Z " fill="#F9E5DF" transform="translate(6,65)"/>
<path d="M0 0 C0.66 0 1.32 0 2 0 C1.67 2.64 1.34 5.28 1 8 C0.01 8.33 -0.98 8.66 -2 9 C-2.125 5.625 -2.125 5.625 -2 2 C-1.34 1.34 -0.68 0.68 0 0 Z " fill="#171717" transform="translate(126,33)"/>
<path d="M0 0 C2.35170044 2.13790949 3.88791835 4.00593401 5 7 C5.125 10.25 5.125 10.25 5 13 C4.34 12.67 3.68 12.34 3 12 C2.59270772 9.67843403 2.25561323 7.3431213 2 5 C1.01 4.67 0.02 4.34 -1 4 C-0.67 2.68 -0.34 1.36 0 0 Z " fill="#DCD551" transform="translate(78,18)"/>
<path d="M0 0 C0.33 0 0.66 0 1 0 C1 1.65 1 3.3 1 5 C3.475 5.99 3.475 5.99 6 7 C6.33 9.97 6.66 12.94 7 16 C6.67 16 6.34 16 6 16 C5.67 13.69 5.34 11.38 5 9 C4.01 8.67 3.02 8.34 2 8 C2 7.34 2 6.68 2 6 C1.34 6 0.68 6 0 6 C-0.38218767 4.34385343 -0.71395102 2.67542976 -1 1 C-0.67 0.67 -0.34 0.34 0 0 Z " fill="#4B1346" transform="translate(50,14)"/>
<path d="M0 0 C0.33 0.99 0.66 1.98 1 3 C0.01 3.33 -0.98 3.66 -2 4 C-1.67 4.66 -1.34 5.32 -1 6 C-2.65 6.33 -4.3 6.66 -6 7 C-6.33 5.68 -6.66 4.36 -7 3 C-4.69 2.01 -2.38 1.02 0 0 Z " fill="#F77935" transform="translate(71,62)"/>
<path d="M0 0 C0.99 0 1.98 0 3 0 C3.36923077 5.53846154 3.36923077 5.53846154 1.5 7.875 C0.7575 8.431875 0.7575 8.431875 0 9 C-0.66 8.67 -1.32 8.34 -2 8 C-1.67 7.236875 -1.34 6.47375 -1 5.6875 C0.17436686 3.00930865 0.17436686 3.00930865 0 0 Z " fill="#1A1A1A" transform="translate(163,50)"/>
<path d="M0 0 C0.66 0 1.32 0 2 0 C2 0.66 2 1.32 2 2 C3.65 2.33 5.3 2.66 7 3 C6.67 3.99 6.34 4.98 6 6 C5.67 5.34 5.34 4.68 5 4 C2.36 4.66 -0.28 5.32 -3 6 C-3 5.34 -3 4.68 -3 4 C-2.34 4 -1.68 4 -1 4 C-0.67 2.68 -0.34 1.36 0 0 Z " fill="#382134" transform="translate(52,35)"/>
<path d="M0 0 C2.97 0 5.94 0 9 0 C6.29730077 2.70269923 3.5747262 3.70570258 0 5 C-2.4375 4.6875 -2.4375 4.6875 -4 4 C-3.34 4 -2.68 4 -2 4 C-2 3.34 -2 2.68 -2 2 C-1.34 2 -0.68 2 0 2 C0 1.34 0 0.68 0 0 Z " fill="#EFDE4C" transform="translate(35,11)"/>
<path d="M0 0 C0.33 0.99 0.66 1.98 1 3 C1.66 3 2.32 3 3 3 C3 3.66 3 4.32 3 5 C4.32 5.66 5.64 6.32 7 7 C2.545 7.495 2.545 7.495 -2 8 C-1.34 5.36 -0.68 2.72 0 0 Z " fill="#FBEEEA" transform="translate(2,55)"/>
<path d="M0 0 C0.66 0.33 1.32 0.66 2 1 C1.46930939 4.82097239 0.50298434 7.06171403 -2 10 C-2 7.03 -2 4.06 -2 1 C-1.34 0.67 -0.68 0.34 0 0 Z " fill="#191919" transform="translate(166,29)"/>
<path d="M0 0 C-0.33 1.32 -0.66 2.64 -1 4 C-1.66 4 -2.32 4 -3 4 C-3.99 4.5259375 -3.99 4.5259375 -5 5.0625 C-5.66 5.371875 -6.32 5.68125 -7 6 C-7.66 5.67 -8.32 5.34 -9 5 C-8.67 4.01 -8.34 3.02 -8 2 C-8 2.66 -8 3.32 -8 4 C-7.01 4 -6.02 4 -5 4 C-5.33 3.01 -5.66 2.02 -6 1 C-4 0 -4 0 0 0 Z " fill="#FB7E3A" transform="translate(63,66)"/>
<path d="M0 0 C0.33 0 0.66 0 1 0 C1.375 2.1875 1.375 2.1875 1 5 C-0.83961648 6.99022836 -2.79186148 8.38989899 -5 10 C-5.33 9.01 -5.66 8.02 -6 7 C-5.01 6.67 -4.02 6.34 -3 6 C-2.40929986 4.05396726 -2.40929986 4.05396726 -2 2 C-1.34 1.34 -0.68 0.68 0 0 Z " fill="#FBE231" transform="translate(81,46)"/>
<path d="M0 0 C2.31 0 4.62 0 7 0 C7 0.99 7 1.98 7 3 C5.02 3.33 3.04 3.66 1 4 C0.67 2.68 0.34 1.36 0 0 Z " fill="#A63233" transform="translate(27,44)"/>
<path d="M0 0 C1.093125 0.185625 2.18625 0.37125 3.3125 0.5625 C6.93624133 1.2578068 6.93624133 1.2578068 10 0 C8.25 4.875 8.25 4.875 6 6 C6 5.01 6 4.02 6 3 C4.35 3.33 2.7 3.66 1 4 C0.67 2.68 0.34 1.36 0 0 Z " fill="#756A69" transform="translate(24,33)"/>
<path d="M0 0 C1.0326802 2.78823655 1.04509293 3.8677274 0.0625 6.75 C-0.288125 7.4925 -0.63875 8.235 -1 9 C-2.65 7.35 -4.3 5.7 -6 4 C-5.67 3.01 -5.34 2.02 -5 1 C-4.34 1.33 -3.68 1.66 -3 2 C-3 2.66 -3 3.32 -3 4 C-2.34 4 -1.68 4 -1 4 C-0.67 2.68 -0.34 1.36 0 0 Z " fill="#547370" transform="translate(69,26)"/>
<path d="M0 0 C1.32 0.66 2.64 1.32 4 2 C2.25 5.875 2.25 5.875 0 7 C0.66 7.66 1.32 8.32 2 9 C0.68 8.67 -0.64 8.34 -2 8 C-2 7.01 -2 6.02 -2 5 C-1.34 5 -0.68 5 0 5 C-0.2784375 4.0409375 -0.2784375 4.0409375 -0.5625 3.0625 C-0.7790625 2.0415625 -0.7790625 2.0415625 -1 1 C-0.67 0.67 -0.34 0.34 0 0 Z " fill="#BC7F05" transform="translate(17,28)"/>
<path d="M0 0 C-2.52956528 3.0916909 -5.22454612 3.90931332 -9 5 C-9 3 -9 3 -7.6875 1.4375 C-4.86835321 -0.96399542 -3.50776556 -1.16925519 0 0 Z " fill="#B34532" transform="translate(77,66)"/>
<path d="M0 0 C0.639375 0.2475 1.27875 0.495 1.9375 0.75 C2.2675 1.74 2.5975 2.73 2.9375 3.75 C0.6275 4.08 -1.6825 4.41 -4.0625 4.75 C-4.0625 3.43 -4.0625 2.11 -4.0625 0.75 C-2.0625 -0.25 -2.0625 -0.25 0 0 Z " fill="#311B66" transform="translate(41.0625,52.25)"/>
<path d="M0 0 C1.485 0.99 1.485 0.99 3 2 C3 2.66 3 3.32 3 4 C3.99 4.33 4.98 4.66 6 5 C6 5.66 6 6.32 6 7 C1.125 6.125 1.125 6.125 0 5 C-0.04063832 3.33382885 -0.042721 1.66611905 0 0 Z " fill="#381E3F" transform="translate(25,44)"/>
<path d="M0 0 C0.33 0 0.66 0 1 0 C1.06058594 0.77085938 1.12117188 1.54171875 1.18359375 2.3359375 C1.26738281 3.33882812 1.35117188 4.34171875 1.4375 5.375 C1.55931641 6.87160156 1.55931641 6.87160156 1.68359375 8.3984375 C1.84965626 10.97927613 1.84965626 10.97927613 3 13 C1.35 14.32 -0.3 15.64 -2 17 C-1.34 11.39 -0.68 5.78 0 0 Z " fill="#F3E256" transform="translate(75,32)"/>
<path d="M0 0 C0.66 0.33 1.32 0.66 2 1 C2.07427838 4.34252724 2.06546953 6.8035914 1 10 C0.34 10 -0.32 10 -1 10 C-1.125 2.25 -1.125 2.25 0 0 Z " fill="#171A16" transform="translate(92,32)"/>
<path d="M0 0 C0.66 0 1.32 0 2 0 C1.67 2.31 1.34 4.62 1 7 C1.66 7 2.32 7 3 7 C2.67 7.66 2.34 8.32 2 9 C0.68 8.01 -0.64 7.02 -2 6 C-1.125 1.125 -1.125 1.125 0 0 Z " fill="#D3B522" transform="translate(58,6)"/>
<path d="M0 0 C1.65 0 3.3 0 5 0 C4.67 1.65 4.34 3.3 4 5 C3.01 5.33 2.02 5.66 1 6 C1 5.01 1 4.02 1 3 C0.01 3.495 0.01 3.495 -1 4 C-0.67 2.68 -0.34 1.36 0 0 Z " fill="#C6960D" transform="translate(63,9)"/>
<path d="M0 0 C-1.04874998 2.62187494 -1.64931313 3.79371361 -4.125 5.25 C-4.74375 5.4975 -5.3625 5.745 -6 6 C-6.66 5.34 -7.32 4.68 -8 4 C-2.25 0 -2.25 0 0 0 Z " fill="#AF3502" transform="translate(78,55)"/>
<path d="M0 0 C0 0.66 0 1.32 0 2 C-0.66 2 -1.32 2 -2 2 C-2 2.99 -2 3.98 -2 5 C-1.34 5.33 -0.68 5.66 0 6 C-2.375 5.75 -2.375 5.75 -5 5 C-6.3125 2.9375 -6.3125 2.9375 -7 1 C-4.50935112 0.31292445 -2.62113708 0 0 0 Z " fill="#363636" transform="translate(161,44)"/>
<path d="M0 0 C0.33 0 0.66 0 1 0 C1.33 1.98 1.66 3.96 2 6 C2.66 6 3.32 6 4 6 C4.33 7.32 4.66 8.64 5 10 C4.01 10.33 3.02 10.66 2 11 C0 9 0 9 -0.1953125 6.8359375 C-0.17210938 6.02382813 -0.14890625 5.21171875 -0.125 4.375 C-0.10695313 3.55773438 -0.08890625 2.74046875 -0.0703125 1.8984375 C-0.04710938 1.27195313 -0.02390625 0.64546875 0 0 Z " fill="#3F3F3F" transform="translate(108,35)"/>
<path d="M0 0 C0.66 0.33 1.32 0.66 2 1 C2 5 2 5 0 8 C0 7.34 0 6.68 0 6 C-1.98 6.99 -1.98 6.99 -4 8 C-2.25 2.25 -2.25 2.25 0 0 Z " fill="#2F2F2F" transform="translate(128,27)"/>
<path d="M0 0 C1.65 0.33 3.3 0.66 5 1 C2.60490662 3.89932357 0.68754757 4.50168276 -3 5 C-3 4.01 -3 3.02 -3 2 C-2.01 2.33 -1.02 2.66 0 3 C0 2.01 0 1.02 0 0 Z " fill="#D5501A" transform="translate(72,62)"/>
<path d="M0 0 C0 0.99 0 1.98 0 3 C-3.32534757 4.10844919 -5.62182575 3.84454356 -9 3 C-8.67 2.34 -8.34 1.68 -8 1 C-5.35139573 0.40644386 -2.70802678 0.25790731 0 0 Z " fill="#A7534F" transform="translate(9,61)"/>
<path d="M0 0 C0.99 0 1.98 0 3 0 C3.33 1.65 3.66 3.3 4 5 C1.525 6.485 1.525 6.485 -1 8 C-1.33 7.34 -1.66 6.68 -2 6 C-1.34 6 -0.68 6 0 6 C1.33333333 3 1.33333333 3 0 0 Z " fill="#E3522F" transform="translate(84,53)"/>
<path d="M0 0 C0.66 0.33 1.32 0.66 2 1 C1.67 1.99 1.34 2.98 1 4 C0.34 4 -0.32 4 -1 4 C-0.67 4.99 -0.34 5.98 0 7 C-0.99 7 -1.98 7 -3 7 C-3 6.34 -3 5.68 -3 5 C-3.66 5 -4.32 5 -5 5 C-5 4.34 -5 3.68 -5 3 C-4.360625 2.87625 -3.72125 2.7525 -3.0625 2.625 C-2.0415625 2.315625 -2.0415625 2.315625 -1 2 C-0.67 1.34 -0.34 0.68 0 0 Z " fill="#BC5D4C" transform="translate(48,27)"/>
<path d="M0 0 C0.99 0.99 1.98 1.98 3 3 C4.32 2.34 5.64 1.68 7 1 C6.1875 2.9375 6.1875 2.9375 5 5 C4.01 5.33 3.02 5.66 2 6 C1.34 5.67 0.68 5.34 0 5 C0 3.35 0 1.7 0 0 Z " fill="#5B7E7B" transform="translate(27,26)"/>
<path d="M0 0 C0.99 0.33 1.98 0.66 3 1 C3 2.32 3 3.64 3 5 C3.66 5.33 4.32 5.66 5 6 C3.02 6 1.04 6 -1 6 C-0.67 4.02 -0.34 2.04 0 0 Z " fill="#781D3A" transform="translate(47,15)"/>
<path d="M0 0 C0.99 0 1.98 0 3 0 C2.67 1.32 2.34 2.64 2 4 C1.360625 4.103125 0.72125 4.20625 0.0625 4.3125 C-0.618125 4.539375 -1.29875 4.76625 -2 5 C-2.33 5.99 -2.66 6.98 -3 8 C-3.33 7.34 -3.66 6.68 -4 6 C-2.1875 3 -2.1875 3 0 0 Z " fill="#DCD049" transform="translate(19,16)"/>
<path d="M0 0 C0.99 0 1.98 0 3 0 C3.33 1.65 3.66 3.3 4 5 C2.68 5.33 1.36 5.66 0 6 C-0.38218767 4.34385343 -0.71395102 2.67542976 -1 1 C-0.67 0.67 -0.34 0.34 0 0 Z " fill="#CBA312" transform="translate(33,7)"/>
<path d="M0 0 C3.465 1.485 3.465 1.485 7 3 C7 3.33 7 3.66 7 4 C3.7 4 0.4 4 -3 4 C-2.01 2.68 -1.02 1.36 0 0 Z " fill="#D43B1C" transform="translate(60,68)"/>
<path d="M0 0 C0.66 0 1.32 0 2 0 C3.625 2 3.625 2 5 4 C4.67 4.66 4.34 5.32 4 6 C3.67 5.67 3.34 5.34 3 5 C0.67182036 4.63239269 -1.6618385 4.29758419 -4 4 C-2.68 3.34 -1.36 2.68 0 2 C0 1.34 0 0.68 0 0 Z " fill="#F3E2E5" transform="translate(92,58)"/>
<path d="M0 0 C2.97 0.495 2.97 0.495 6 1 C6 1.66 6 2.32 6 3 C4.02 3.33 2.04 3.66 0 4 C0 2.68 0 1.36 0 0 Z " fill="#695865" transform="translate(45,51)"/>
<path d="M0 0 C0.99 0 1.98 0 3 0 C3.33 1.32 3.66 2.64 4 4 C2.68 4.33 1.36 4.66 0 5 C-0.5625 3.0625 -0.5625 3.0625 -1 1 C-0.67 0.67 -0.34 0.34 0 0 Z " fill="#C6880E" transform="translate(16,38)"/>
<path d="M0 0 C0 0.66 0 1.32 0 2 C-1.95927063 3.7143618 -3.95880212 5.38405168 -6 7 C-5.625 4.0625 -5.625 4.0625 -5 1 C-3 0 -3 0 0 0 Z " fill="#F2D949" transform="translate(31,17)"/>
<path d="M0 0 C0.99 0.33 1.98 0.66 3 1 C2.67 2.98 2.34 4.96 2 7 C1.01 7 0.02 7 -1 7 C-0.67 4.69 -0.34 2.38 0 0 Z " fill="#FDEC1B" transform="translate(60,6)"/>
<path d="M0 0 C0.53625 0.268125 1.0725 0.53625 1.625 0.8125 C0.201875 1.43125 0.201875 1.43125 -1.25 2.0625 C-4.38216624 3.8165131 -5.24000606 4.52101757 -6.375 7.8125 C-7.035 6.8225 -7.695 5.8325 -8.375 4.8125 C-2.95961538 -0.23365385 -2.95961538 -0.23365385 0 0 Z " fill="#A51810" transform="translate(89.375,58.1875)"/>
<path d="M0 0 C1.32 0 2.64 0 4 0 C4 3.3 4 6.6 4 10 C3.67 10 3.34 10 3 10 C2.67 7.69 2.34 5.38 2 3 C1.01 3.495 1.01 3.495 0 4 C0 2.68 0 1.36 0 0 Z " fill="#424141" transform="translate(91,30)"/>
<path d="M0 0 C0.99 0 1.98 0 3 0 C3.66 1.65 4.32 3.3 5 5 C4.01 5.33 3.02 5.66 2 6 C1.87625 5.360625 1.7525 4.72125 1.625 4.0625 C1.315625 3.0415625 1.315625 3.0415625 1 2 C0.34 1.67 -0.32 1.34 -1 1 C-0.67 0.67 -0.34 0.34 0 0 Z " fill="#C22A0A" transform="translate(81,53)"/>
<path d="M0 0 C2.125 0.375 2.125 0.375 4 1 C2.73223544 3.53552912 1.53176935 3.84919575 -1 5 C-1.99 5.495 -1.99 5.495 -3 6 C-2.42655063 3.13275314 -2.1385485 2.1385485 0 0 Z " fill="#B2443C" transform="translate(9,48)"/>
<path d="M0 0 C0.99 0 1.98 0 3 0 C2.34 1.65 1.68 3.3 1 5 C0.01 5 -0.98 5 -2 5 C-1.125 1.125 -1.125 1.125 0 0 Z " fill="#4C2C44" transform="translate(46,25)"/>
<path d="M0 0 C2.475 0.99 2.475 0.99 5 2 C4.01 3.485 4.01 3.485 3 5 C1.68 4.34 0.36 3.68 -1 3 C-0.67 2.01 -0.34 1.02 0 0 Z " fill="#C5870D" transform="translate(18,23)"/>
<path d="M0 0 C2.16874252 0.50603992 3.99967627 0.99983813 6 2 C6.625 4.5625 6.625 4.5625 7 7 C5.83040013 6.02433888 4.66438823 5.044375 3.5 4.0625 C2.8503125 3.51722656 2.200625 2.97195312 1.53125 2.41015625 C1.0259375 1.94480469 0.520625 1.47945312 0 1 C0 0.67 0 0.34 0 0 Z " fill="#EEDB54" transform="translate(64,16)"/>
<path d="M0 0 C3.24208567 0.35049575 4.61527704 0.56221181 6.8125 3.0625 C7.204375 3.701875 7.59625 4.34125 8 5 C7.01 5.495 7.01 5.495 6 6 C6 5.34 6 4.68 6 4 C5.01 4 4.02 4 3 4 C3 3.34 3 2.68 3 2 C2.01 2 1.02 2 0 2 C0 1.34 0 0.68 0 0 Z " fill="#D9D057" transform="translate(65,7)"/>
<path d="M0 0 C0.99 0.66 1.98 1.32 3 2 C2.67 2.99 2.34 3.98 2 5 C0.68 4.67 -0.64 4.34 -2 4 C-1.34 2.68 -0.68 1.36 0 0 Z " fill="#C2870F" transform="translate(79,34)"/>
<path d="M0 0 C0.33 0 0.66 0 1 0 C1 2.64 1 5.28 1 8 C0.01 8.33 -0.98 8.66 -2 9 C-1.41196203 5.97580475 -0.77321882 2.98241547 0 0 Z " fill="#232843" transform="translate(70,26)"/>
<path d="M0 0 C1.98 0.66 3.96 1.32 6 2 C4.625 3.5 4.625 3.5 3 5 C2.34 5 1.68 5 1 5 C1 4.34 1 3.68 1 3 C0.34 2.67 -0.32 2.34 -1 2 C-0.67 1.34 -0.34 0.68 0 0 Z " fill="#DBB21F" transform="translate(75,29)"/>
<path d="M0 0 C1.98 0 3.96 0 6 0 C5.67 1.32 5.34 2.64 5 4 C4.01 4 3.02 4 2 4 C2 3.34 2 2.68 2 2 C1.34 1.34 0.68 0.68 0 0 Z " fill="#812134" transform="translate(50,30)"/>
<path d="M0 0 C2.475 0.99 2.475 0.99 5 2 C3.68 2.33 2.36 2.66 1 3 C1 4.32 1 5.64 1 7 C0.34 7 -0.32 7 -1 7 C-1.04254356 5.00045254 -1.04080783 2.99958364 -1 1 C-0.67 0.67 -0.34 0.34 0 0 Z " fill="#FCD82C" transform="translate(16,26)"/>
<path d="M0 0 C0.66 0.33 1.32 0.66 2 1 C1.3125 2.9375 1.3125 2.9375 0 5 C-2.625 5.75 -2.625 5.75 -5 6 C-5 5.34 -5 4.68 -5 4 C-3.37373596 2.61767557 -1.7074998 1.28062485 0 0 Z " fill="#D8CE4C" transform="translate(27,8)"/>
</g>
</svg>
